<svg id="Layer_1" data-name="Layer 1" xmlns="http://www.w3.org/2000/svg" viewBox="0 0 21 21"><defs><style>.cls-1{fill:#2fa5de;}.cls-2{fill:#e72321;}.cls-3{fill:#04922c;}.cls-4{fill:#fff;}</style></defs><path class="cls-1" d="M21,5v8.5H0V5A2,2,0,0,1,2,3H19A2,2,0,0,1,21,5Z"/><rect class="cls-2" y="7.5" width="21" height="6"/><path class="cls-3" d="M21,13.5V16a2,2,0,0,1-2,2H2a2,2,0,0,1-2-2V13.5Z"/><path class="cls-4" d="M10.12,12.49a2,2,0,0,0,1.54-.72,2.38,2.38,0,1,1,.05-2.47,2,2,0,1,0-1.59,3.19Z"/><polygon class="cls-4" points="12.46 9.21 12.7 9.91 13.37 9.59 13.05 10.25 13.74 10.5 13.05 10.75 13.37 11.41 12.7 11.09 12.46 11.79 12.21 11.09 11.55 11.41 11.86 10.75 11.17 10.5 11.86 10.25 11.55 9.59 12.21 9.91 12.46 9.21"/></svg>