<svg id="Layer_1" data-name="Layer 1" xmlns="http://www.w3.org/2000/svg" viewBox="0 0 21 21"><defs><style>.cls-1{fill:#e72321;}.cls-2{fill:#04922c;}.cls-3{fill:#fff;}</style></defs><path class="cls-1" d="M21,5v8.5H0V5A2,2,0,0,1,2,3H19A2,2,0,0,1,21,5Z"/><path class="cls-2" d="M21,13.5V16a2,2,0,0,1-2,2H2a2,2,0,0,1-2-2V13.5Z"/><path class="cls-3" d="M3.94,3V18H1.8a1.61,1.61,0,0,1-.38-.08A2,2,0,0,1,.26,17a1.11,1.11,0,0,1-.13-.27,1.12,1.12,0,0,1-.08-.26A2,2,0,0,1,0,16V5a2,2,0,0,1,.05-.43,1.12,1.12,0,0,1,.08-.26A1.11,1.11,0,0,1,.26,4a2,2,0,0,1,1.16-1A1.61,1.61,0,0,1,1.8,3H3.94Z"/><polygon class="cls-1" points="1.72 4.3 1.72 4.3 1.8 4.3 1.87 4.3 1.87 4.84 1.8 4.84 1.76 4.84 1.72 4.84 1.72 4.3"/><polygon class="cls-1" points="1.57 5.64 1.57 5.91 1.42 5.91 1.42 6.14 1.22 6.14 1.22 5.91 1.07 5.91 1.07 5.64 0.92 5.64 0.92 5.38 1.07 5.38 1.07 5.11 1.22 5.11 1.22 4.84 1.42 4.84 1.42 5.11 1.57 5.11 1.57 5.38 1.72 5.38 1.72 5.64 1.57 5.64"/><polygon class="cls-1" points="1.87 6.68 1.8 6.68 1.76 6.68 1.72 6.68 1.72 6.14 1.76 6.14 1.8 6.14 1.87 6.14 1.87 6.68"/><polygon class="cls-1" points="2.64 5.64 2.49 5.64 2.49 5.91 2.33 5.91 2.33 6.14 2.18 6.14 2.18 5.91 2.03 5.91 2.03 5.64 1.87 5.64 1.87 5.38 2.03 5.38 2.03 5.11 2.18 5.11 2.18 4.84 2.33 4.84 2.33 5.11 2.49 5.11 2.49 5.38 2.64 5.38 2.64 5.64"/><polygon class="cls-1" points="1.72 14.32 1.72 14.32 1.8 14.32 1.87 14.32 1.87 14.86 1.8 14.86 1.76 14.86 1.72 14.86 1.72 14.32"/><polygon class="cls-1" points="1.57 15.62 1.57 15.89 1.42 15.89 1.42 16.16 1.22 16.16 1.22 15.89 1.07 15.89 1.07 15.62 0.92 15.62 0.92 15.36 1.07 15.36 1.07 15.09 1.22 15.09 1.22 14.86 1.42 14.86 1.42 15.09 1.57 15.09 1.57 15.36 1.72 15.36 1.72 15.62 1.57 15.62"/><polygon class="cls-1" points="1.87 16.7 1.8 16.7 1.76 16.7 1.72 16.7 1.72 16.16 1.76 16.16 1.8 16.16 1.87 16.16 1.87 16.7"/><polygon class="cls-1" points="2.64 15.62 2.49 15.62 2.49 15.89 2.33 15.89 2.33 16.16 2.18 16.16 2.18 15.89 2.03 15.89 2.03 15.62 1.87 15.62 1.87 15.36 2.03 15.36 2.03 15.09 2.18 15.09 2.18 14.86 2.33 14.86 2.33 15.09 2.49 15.09 2.49 15.36 2.64 15.36 2.64 15.62"/><rect class="cls-1" x="3.4" y="16.43" width="0.15" height="0.27"/><polygon class="cls-1" points="3.56 15.62 3.4 15.62 3.4 15.89 3.25 15.89 3.25 16.16 3.1 16.16 3.1 15.89 2.94 15.89 2.94 15.62 2.79 15.62 2.79 15.36 2.94 15.36 2.94 15.09 3.1 15.09 3.1 14.86 3.25 14.86 3.25 15.09 3.4 15.09 3.4 15.36 3.56 15.36 3.56 15.62"/><rect class="cls-1" x="3.4" y="14.32" width="0.15" height="0.27"/><rect class="cls-1" x="3.4" y="12.49" width="0.15" height="0.27"/><rect class="cls-1" x="3.4" y="8.24" width="0.15" height="0.27"/><rect class="cls-1" x="3.4" y="6.41" width="0.15" height="0.27"/><polygon class="cls-1" points="3.56 5.64 3.4 5.64 3.4 5.91 3.25 5.91 3.25 6.14 3.1 6.14 3.1 5.91 2.94 5.91 2.94 5.64 2.79 5.64 2.79 5.38 2.94 5.38 2.94 5.11 3.1 5.11 3.1 4.84 3.25 4.84 3.25 5.11 3.4 5.11 3.4 5.38 3.56 5.38 3.56 5.64"/><rect class="cls-1" x="3.4" y="4.31" width="0.15" height="0.27"/><rect class="cls-1" x="3.41" y="3" width="0.15" height="0.01"/><rect class="cls-1" x="3.4" y="14.32" width="0.15" height="0.27"/><polygon class="cls-1" points="2.49 15.09 2.33 15.09 2.33 14.86 2.18 14.86 2.18 15.09 2.03 15.09 2.03 15.36 1.87 15.36 1.87 15.62 2.03 15.62 2.03 15.89 2.18 15.89 2.18 16.16 2.33 16.16 2.33 15.89 2.49 15.89 2.49 15.62 2.64 15.62 2.64 15.36 2.49 15.36 2.49 15.09"/><polygon class="cls-1" points="3.4 15.09 3.25 15.09 3.25 14.86 3.1 14.86 3.1 15.09 2.94 15.09 2.94 15.36 2.79 15.36 2.79 15.62 2.94 15.62 2.94 15.89 3.1 15.89 3.1 16.16 3.25 16.16 3.25 15.89 3.4 15.89 3.4 15.62 3.56 15.62 3.56 15.36 3.4 15.36 3.4 15.09"/><rect class="cls-1" x="3.4" y="16.43" width="0.15" height="0.27"/><polygon class="cls-1" points="3.56 17.23 3.56 17.46 3.41 17.46 3.41 17.73 3.25 17.73 3.25 17.99 3.1 17.99 3.1 18 2.33 18 2.33 17.99 2.18 17.99 2.18 17.73 2.03 17.73 2.03 17.46 1.88 17.46 1.88 17.23 2.03 17.23 2.03 16.96 2.18 16.96 2.18 16.69 2.33 16.69 2.33 16.43 2.49 16.43 2.49 16.16 2.64 16.16 2.64 15.89 2.79 15.89 2.79 16.16 2.95 16.16 2.95 16.43 3.1 16.43 3.1 16.69 3.25 16.69 3.25 16.96 3.41 16.96 3.41 17.23 3.56 17.23"/><rect class="cls-1" x="3.4" y="12.49" width="0.15" height="0.27"/><polygon class="cls-1" points="2.49 10.54 2.49 10.46 2.49 10.38 2.33 10.38 2.33 10.46 2.33 10.54 2.33 10.62 2.49 10.62 2.49 10.54"/><path class="cls-1" d="M0,16.69H0v-.26A.59.59,0,0,0,0,16.69Z"/><path class="cls-1" d="M.13,16.69H0a.59.59,0,0,1,0-.26H.05A1.12,1.12,0,0,0,.13,16.69Z"/><path class="cls-1" d="M.16,16.43v.26h0a1.12,1.12,0,0,1-.08-.26Z"/><path class="cls-1" d="M1.72,17.23v.23H1.57v.27H1.42v.18A2,2,0,0,1,.26,17h0v-.27H.46v-.26H.61v-.27H.77v-.27H.92v.27h.15v.27h.16v.26h.19V17h.15v.27Z"/><rect class="cls-1" y="14.32" width="0.15" height="0.27"/><polygon class="cls-1" points="0.15 15.89 0.31 15.89 0.31 16.16 0.46 16.16 0.46 15.89 0.61 15.89 0.61 15.62 0.77 15.62 0.77 15.36 0.61 15.36 0.61 15.09 0.46 15.09 0.46 14.86 0.31 14.86 0.31 15.09 0.15 15.09 0.15 15.36 0 15.36 0 15.62 0.15 15.62 0.15 15.89"/><polygon class="cls-1" points="1.72 15.36 1.57 15.36 1.57 15.09 1.42 15.09 1.42 14.86 1.22 14.86 1.22 15.09 1.07 15.09 1.07 15.36 0.92 15.36 0.92 15.62 1.07 15.62 1.07 15.89 1.22 15.89 1.22 16.16 1.42 16.16 1.42 15.89 1.57 15.89 1.57 15.62 1.72 15.62 1.72 15.36"/><polygon class="cls-1" points="1.8 14.86 1.87 14.86 1.87 14.32 1.8 14.32 1.76 14.32 1.72 14.32 1.72 14.86 1.76 14.86 1.8 14.86"/><polygon class="cls-1" points="1.76 16.16 1.72 16.16 1.72 16.7 1.76 16.7 1.8 16.7 1.87 16.7 1.87 16.16 1.8 16.16 1.76 16.16"/><path class="cls-1" d="M.15,14.06H.31v.26H.46v.27H.61v.27H.76v.23H.92v-.27h.15v-.27h.15v-.23h.16v-.26h.15v-.27h.15v-.27h.19v.27H2v.27h.15v.26h.15v.27h.16v.27h.15v.23h.15v-.27h.15v-.27H3.1v-.23h.15v-.26H3.4v-.27h.16v-.54H3.4V13H3.25v-.27H3.1v-.27H2.94v.27H2.79V13H2.64v.26h.3v.27H2.49v-.27H2.33V13H2.18v-.27h.15v-.27h.16v-.27h.15v-.27h.15v-.26h.15v-.27H3.1v.27h.15v.26H3.4v.27h.16v-.8H3.4v-.27H3.25v-.23H3.1v-.27H2.94v-.26H3.1v-.23h.15V9.85H3.4V9.58h.16v-.8H3.4v.27H3.25v.26H3.1v.27H2.94V9.31H2.79V9.05H2.64V8.78H2.49V8.51H2.33V8.24H2.18V8h.15V7.71h.16V7.44h.45v.27h-.3V8h.15v.26h.15v.27H3.1V8.24h.15V8H3.4V7.71h.16V7.17H3.4V6.91H3.25V6.68H3.1V6.41H2.94V6.14H2.79V5.91H2.64v.27H2.49v.27H2.33v.23H2.18v.26H2v.27H1.87v.27H1.72V7.21H1.57V6.94H1.41V6.68H1.22V6.41H1.07V6.14H.92V5.91H.76v.27H.61v.27H.46v.23H.31v.26H.15v.27H0v.54H.15V8H.31v.27H.46v.27H.61V8.28H.76V8H.92V7.75H.61V7.48h.46v.27h.15V8h.16v.27H1.22v.27H1.07v.27H.92v.27H.76v.26H.61v.27H.46V9.35H.31V9.09H.15V8.82H0v.8H.15v.27H.31v.23H.46v.27H.61v.26H.46v.23H.31v.27H.15v.27H0v.8H.15V12H.31v-.26H.46v-.27H.61v.27H.76V12H.92v.27h.15v.27h.15v.27h.16V13H1.22v.27H1.07v.27H.61v-.27H.92V13H.76v-.26H.61v-.27H.46v.27H.31V13H.15v.27H0v.54H.15Zm1.07-2.37v-.27H1.07v-.27H.92V9.81h.15V9.54h.15V9.28h.16V9h.15V8.74h.15V8.47h.19v.27H2V9h.15v.27h.15v.26h.16v.27h.15v1.34H2.49v.27H2.33v.27H2.18V12H2v.27H1.87v.27H1.72v-.27H1.57V12H1.41v-.26Z"/><rect class="cls-1" y="12.49" width="0.15" height="0.27"/><polygon class="cls-1" points="1.57 11.15 1.72 11.15 1.72 10.88 1.76 10.88 1.8 10.88 1.87 10.88 1.87 11.15 2.03 11.15 2.03 11.42 2.18 11.42 2.18 10.88 2.03 10.88 2.03 10.62 1.87 10.62 1.87 10.54 1.87 10.46 1.87 10.38 2.03 10.38 2.03 10.12 2.18 10.12 2.18 9.58 2.03 9.58 2.03 9.85 1.87 9.85 1.87 10.12 1.8 10.12 1.76 10.12 1.72 10.12 1.72 9.85 1.57 9.85 1.57 9.58 1.42 9.58 1.42 10.12 1.57 10.12 1.57 10.38 1.72 10.38 1.72 10.46 1.72 10.54 1.72 10.62 1.57 10.62 1.57 10.88 1.42 10.88 1.42 11.42 1.57 11.42 1.57 11.15"/><polygon class="cls-1" points="1.76 11.69 1.72 11.69 1.72 11.95 1.76 11.95 1.8 11.95 1.87 11.95 1.87 11.69 1.8 11.69 1.76 11.69"/><polygon class="cls-1" points="1.8 4.84 1.87 4.84 1.87 4.3 1.8 4.3 1.76 4.3 1.72 4.3 1.72 4.84 1.76 4.84 1.8 4.84"/><polygon class="cls-1" points="3.4 5.11 3.25 5.11 3.25 4.84 3.1 4.84 3.1 5.11 2.94 5.11 2.94 5.38 2.79 5.38 2.79 5.64 2.94 5.64 2.94 5.91 3.1 5.91 3.1 6.14 3.25 6.14 3.25 5.91 3.4 5.91 3.4 5.64 3.56 5.64 3.56 5.38 3.4 5.38 3.4 5.11"/><rect class="cls-1" x="3.4" y="6.41" width="0.15" height="0.27"/><rect class="cls-1" x="3.4" y="4.31" width="0.15" height="0.27"/><polygon class="cls-1" points="2.49 5.11 2.33 5.11 2.33 4.84 2.18 4.84 2.18 5.11 2.03 5.11 2.03 5.38 1.87 5.38 1.87 5.64 2.03 5.64 2.03 5.91 2.18 5.91 2.18 6.14 2.33 6.14 2.33 5.91 2.49 5.91 2.49 5.64 2.64 5.64 2.64 5.38 2.49 5.38 2.49 5.11"/><polygon class="cls-1" points="3.56 3.54 3.56 3.77 3.41 3.77 3.41 4.04 3.25 4.04 3.25 4.31 3.1 4.31 3.1 4.57 2.95 4.57 2.95 4.84 2.79 4.84 2.79 5.11 2.64 5.11 2.64 4.84 2.49 4.84 2.49 4.57 2.33 4.57 2.33 4.31 2.18 4.31 2.18 4.04 2.03 4.04 2.03 3.77 1.88 3.77 1.88 3.54 2.03 3.54 2.03 3.27 2.18 3.27 2.18 3.01 2.33 3.01 2.33 3 3.1 3 3.1 3.01 3.25 3.01 3.25 3.27 3.41 3.27 3.41 3.54 3.56 3.54"/><rect class="cls-1" x="3.4" y="8.24" width="0.15" height="0.27"/><rect class="cls-1" y="6.41" width="0.15" height="0.27"/><path class="cls-1" d="M1.72,3.54v.23H1.57V4H1.42v.27H1.23v.26H1.07v.27H.92v.27H.77V4.84H.61V4.57H.46V4.31H.31V4h0a2,2,0,0,1,1.16-1v.18h.15v.27Z"/><path class="cls-1" d="M.16,4.31v.26H.05a1.12,1.12,0,0,1,.08-.26Z"/><polygon class="cls-1" points="1.72 5.38 1.57 5.38 1.57 5.11 1.42 5.11 1.42 4.84 1.22 4.84 1.22 5.11 1.07 5.11 1.07 5.38 0.92 5.38 0.92 5.64 1.07 5.64 1.07 5.91 1.22 5.91 1.22 6.14 1.42 6.14 1.42 5.91 1.57 5.91 1.57 5.64 1.72 5.64 1.72 5.38"/><polygon class="cls-1" points="0.15 5.91 0.31 5.91 0.31 6.14 0.46 6.14 0.46 5.91 0.61 5.91 0.61 5.64 0.77 5.64 0.77 5.38 0.61 5.38 0.61 5.11 0.46 5.11 0.46 4.84 0.31 4.84 0.31 5.11 0.15 5.11 0.15 5.38 0 5.38 0 5.64 0.15 5.64 0.15 5.91"/><polygon class="cls-1" points="1.76 6.14 1.72 6.14 1.72 6.68 1.76 6.68 1.8 6.68 1.87 6.68 1.87 6.14 1.8 6.14 1.76 6.14"/><polygon class="cls-1" points="1.07 10.46 1.07 10.54 1.07 10.62 1.22 10.62 1.22 10.54 1.22 10.46 1.22 10.38 1.07 10.38 1.07 10.46"/><rect class="cls-1" y="8.24" width="0.15" height="0.27"/><polygon class="cls-1" points="1.8 9.31 1.87 9.31 1.87 9.05 1.8 9.05 1.76 9.05 1.72 9.05 1.72 9.31 1.76 9.31 1.8 9.31"/></svg>