<svg id="Layer_1" data-name="Layer 1" xmlns="http://www.w3.org/2000/svg" viewBox="0 0 21 21"><defs><style>.cls-1{fill:#edeeef;}.cls-2{fill:#e72321;}</style></defs><path class="cls-1" d="M19,3H2A2,2,0,0,0,0,5V7.5H0v6H0V16a2,2,0,0,0,2,2H19a2,2,0,0,0,2-2V5A2,2,0,0,0,19,3Z"/><path class="cls-2" d="M9.1,3V9.1H0v2.8H9.1V18h2.8V11.9H21V9.1H11.9V3Z"/><path class="cls-2" d="M17.82,14.74a3.87,3.87,0,0,1,0-.48,8.27,8.27,0,0,1-1,.12,5.58,5.58,0,0,1,.12-1l-.48,0-.48,0a8.27,8.27,0,0,1,.12,1,8.27,8.27,0,0,1-1-.12,3.86,3.86,0,0,1,0,1,5.58,5.58,0,0,1,1-.12,8.27,8.27,0,0,1-.12,1,3.85,3.85,0,0,1,1,0,5.58,5.58,0,0,1-.12-1,5.58,5.58,0,0,1,1,.12A3.87,3.87,0,0,1,17.82,14.74Z"/><path class="cls-2" d="M17.82,6.26a3.87,3.87,0,0,1,0-.48,5.58,5.58,0,0,1-1,.12,5.58,5.58,0,0,1,.12-1l-.48,0L16,4.9a8.27,8.27,0,0,1,.12,1,5.58,5.58,0,0,1-1-.12,3.86,3.86,0,0,1,0,1,8.27,8.27,0,0,1,1-.12,8.27,8.27,0,0,1-.12,1,3.85,3.85,0,0,1,1,0,5.58,5.58,0,0,1-.12-1,8.27,8.27,0,0,1,1,.12A3.87,3.87,0,0,1,17.82,6.26Z"/><path class="cls-2" d="M5.88,6.26a3.87,3.87,0,0,1,0-.48,5.69,5.69,0,0,1-1,.12A6.65,6.65,0,0,1,5,4.9a3.59,3.59,0,0,1-.47,0,3.75,3.75,0,0,1-.48,0,8.27,8.27,0,0,1,.12,1,5.47,5.47,0,0,1-1-.12,3.87,3.87,0,0,1,0,.48,3.87,3.87,0,0,1,0,.48,8,8,0,0,1,1-.12,8.27,8.27,0,0,1-.12,1,3.75,3.75,0,0,1,.48,0,3.59,3.59,0,0,1,.47,0,6.65,6.65,0,0,1-.11-1,8.52,8.52,0,0,1,1,.12A3.87,3.87,0,0,1,5.88,6.26Z"/><path class="cls-2" d="M5.88,14.74a3.59,3.59,0,0,1,0-.47,6.8,6.8,0,0,1-1,.11,6.65,6.65,0,0,1,.11-1,3.59,3.59,0,0,1-.47,0,3.75,3.75,0,0,1-.48,0,8.27,8.27,0,0,1,.12,1,6.51,6.51,0,0,1-1-.11,3.59,3.59,0,0,1,0,.47,3.87,3.87,0,0,1,0,.48,8,8,0,0,1,1-.12,8,8,0,0,1-.12,1,3.75,3.75,0,0,1,.48,0,3.59,3.59,0,0,1,.47,0,6.51,6.51,0,0,1-.11-1,8.52,8.52,0,0,1,1,.12A3.87,3.87,0,0,1,5.88,14.74Z"/></svg>