<svg id="Layer_1" data-name="Layer 1" xmlns="http://www.w3.org/2000/svg" viewBox="0 0 21 21"><defs><style>.cls-1{fill:#d80316;}.cls-2,.cls-4{fill:#ffdf00;}.cls-2{stroke:#000;stroke-width:0.01px;}.cls-3{fill:#e60019;}</style></defs><path class="cls-1" d="M19,3H2A2,2,0,0,0,0,5V7.5H0v6H0V16a2,2,0,0,0,2,2H19a2,2,0,0,0,2-2V5A2,2,0,0,0,19,3Z"/><path class="cls-2" d="M10.8,6.74c0-.65.58-1.1.61-2,.41.53-.27,1.5,0,2.07.11-.64.75-1,.91-1.85.33.58-.5,1.44-.35,2,.21-.61.9-.86,1.2-1.68.23.62-.72,1.34-.67,2,.31-.58,1-.71,1.44-1.48.14.66-.92,1.22-1,1.83.39-.52,1.12-.55,1.66-1.24,0,.67-1.1,1.06-1.24,1.66.47-.46,1.19-.36,1.83-1-.08.66-1.25.87-1.48,1.44.53-.38,1.23-.17,1.95-.67-.17.65-1.37.67-1.68,1.2.58-.29,1.25,0,2-.35-.27.6-1.46.43-1.85.91.62-.19,1.23.22,2.07,0-.37.56-1.51.21-2,.61.65-.09,1.18.41,2,.3-.45.49-1.53,0-2,.3.65,0,1.1.58,2,.61-.53.41-1.5-.27-2.07,0,.64.11,1,.75,1.85.91-.58.33-1.44-.5-2-.35.61.21.86.9,1.68,1.2-.62.23-1.34-.72-1.95-.67.58.31.71,1,1.48,1.44-.66.14-1.22-.92-1.83-1,.52.39.55,1.12,1.24,1.66-.67,0-1.06-1.1-1.66-1.24.46.47.36,1.19,1,1.83-.66-.08-.87-1.25-1.44-1.48.38.53.17,1.23.67,1.95-.65-.17-.67-1.37-1.2-1.68.29.58,0,1.25.35,2-.6-.27-.43-1.46-.91-1.85.19.62-.22,1.23,0,2.07-.56-.37-.21-1.51-.61-2,.09.65-.41,1.18-.3,2-.49-.45,0-1.53-.3-2,0,.65-.58,1.1-.61,2-.41-.53.27-1.5,0-2.07-.11.64-.75,1-.91,1.85-.33-.58.5-1.44.35-2-.21.61-.9.86-1.2,1.68-.23-.62.72-1.34.67-1.95-.31.58-1,.71-1.44,1.48C7,14.54,8,14,8.05,13.37c-.39.52-1.12.55-1.66,1.24,0-.67,1.1-1.06,1.24-1.66-.47.46-1.19.36-1.83,1,.08-.66,1.25-.87,1.48-1.44-.53.38-1.23.17-1.95.67.17-.65,1.37-.67,1.68-1.2-.58.29-1.25,0-2,.35.27-.6,1.46-.43,1.85-.91-.62.19-1.23-.22-2.07,0,.37-.56,1.51-.21,2-.61-.65.09-1.18-.41-2-.3.45-.49,1.53,0,2.05-.3-.65,0-1.1-.58-2-.61.53-.41,1.5.27,2.07,0-.64-.11-1-.75-1.85-.91.58-.33,1.44.5,2,.35-.61-.21-.86-.9-1.68-1.2.62-.23,1.34.73,2,.67-.58-.31-.71-1-1.48-1.44C6.46,7,7,8,7.63,8.05c-.52-.39-.55-1.12-1.24-1.66.67,0,1.06,1.1,1.66,1.24-.46-.47-.36-1.19-1-1.83.66.08.87,1.25,1.44,1.48-.38-.53-.17-1.23-.67-1.95.65.17.67,1.37,1.2,1.68-.29-.58,0-1.25-.35-2,.6.27.43,1.46.91,1.85-.19-.62.22-1.23,0-2.07.56.37.21,1.51.61,2-.09-.65.41-1.18.3-2C11,5.14,10.47,6.22,10.8,6.74Z"/><path class="cls-3" d="M10.5,13.57A3.07,3.07,0,1,0,7.43,10.5,3.07,3.07,0,0,0,10.5,13.57Z"/><path class="cls-4" d="M10.5,7.82a2.67,2.67,0,0,1,2,.88,5.48,5.48,0,0,0-2,.53,5.48,5.48,0,0,0-2-.53A2.67,2.67,0,0,1,10.5,7.82Z"/><path class="cls-4" d="M10.3,9.34l-.18.11A4.42,4.42,0,0,0,8.31,9a1.47,1.47,0,0,1,.1-.13A5,5,0,0,1,10.3,9.34Z"/><path class="cls-4" d="M10.7,9.34a.78.78,0,0,1,.18.11A4.42,4.42,0,0,1,12.69,9a1.47,1.47,0,0,0-.1-.13A5,5,0,0,0,10.7,9.34Z"/><path class="cls-4" d="M8.22,9.1s-.05.09-.08.14a3.52,3.52,0,0,1,1.67.42L10,9.55A4,4,0,0,0,8.22,9.1Z"/><path class="cls-4" d="M8.19,11.85a2.7,2.7,0,0,1-.37-1.35,2.63,2.63,0,0,1,.25-1.12,3.3,3.3,0,0,1,1.61.38A5.21,5.21,0,0,0,8.19,11.85Z"/><path class="cls-4" d="M9.54,13a2.26,2.26,0,0,1-.35-.17,4.2,4.2,0,0,1,1.05-2.66l.14.15A3.87,3.87,0,0,0,9.54,13Z"/><path class="cls-4" d="M12.78,9.1a.64.64,0,0,1,.08.14,3.55,3.55,0,0,0-1.67.42l-.14-.11A3.9,3.9,0,0,1,12.78,9.1Z"/><path class="cls-4" d="M12.81,11.85a2.7,2.7,0,0,0,.37-1.35,2.63,2.63,0,0,0-.25-1.12,3.3,3.3,0,0,0-1.61.38A5.21,5.21,0,0,1,12.81,11.85Z"/><path class="cls-4" d="M10.5,10.47a3.63,3.63,0,0,1,.65,2.63,2.75,2.75,0,0,1-.65.08,2.82,2.82,0,0,1-.65-.08A3.68,3.68,0,0,1,10.5,10.47Z"/><path class="cls-4" d="M11.46,13a2.26,2.26,0,0,0,.35-.17,4.2,4.2,0,0,0-1.05-2.66l-.14.15A3.87,3.87,0,0,1,11.46,13Z"/><path class="cls-4" d="M10.08,10l-.19-.14a4.93,4.93,0,0,0-1.4,2.37,2.65,2.65,0,0,0,.34.33A4.57,4.57,0,0,1,10.08,10Z"/><path class="cls-4" d="M10.92,10l.19-.14a5,5,0,0,1,1.41,2.37,2.73,2.73,0,0,1-.35.33A4.57,4.57,0,0,0,10.92,10Z"/><path class="cls-4" d="M10.5,9.45l.18.11-.18.12-.18-.12Z"/><path class="cls-4" d="M10.16,9.68l-.14.1.18.14.14-.12Z"/><path class="cls-4" d="M10.84,9.68l.14.1-.18.14-.14-.12Z"/><path class="cls-4" d="M10.5,9.93l.14.12-.14.13-.14-.13Z"/></svg>