<svg id="Layer_1" data-name="Layer 1" xmlns="http://www.w3.org/2000/svg" viewBox="0 0 21 21"><defs><style>.cls-1{fill:#00afca;}.cls-2,.cls-3{fill:#fbc41c;}.cls-3{stroke:#00afca;stroke-miterlimit:1.2;stroke-width:0.01px;}</style></defs><path class="cls-1" d="M19,3H2A2,2,0,0,0,0,5V7.5H0v6H0V16a2,2,0,0,0,2,2H19a2,2,0,0,0,2-2V5A2,2,0,0,0,19,3Z"/><g id="sun"><circle class="cls-2" cx="11.41" cy="9.21" r="2.49"/><g id="r16"><g id="r4"><path id="r" class="cls-2" d="M11.41,6.38a.19.19,0,0,0,.2-.21,7.82,7.82,0,0,0-.2-.85,7.51,7.51,0,0,0-.21.85A.19.19,0,0,0,11.41,6.38Z"/><path id="r-2" data-name="r" class="cls-2" d="M14.24,9.21a.18.18,0,0,0,.2.2,7.29,7.29,0,0,0,.85-.2A7,7,0,0,0,14.44,9,.19.19,0,0,0,14.24,9.21Z"/><path id="r-3" data-name="r" class="cls-2" d="M11.41,12a.19.19,0,0,0-.21.2,7,7,0,0,0,.21.85,7.29,7.29,0,0,0,.2-.85A.18.18,0,0,0,11.41,12Z"/><path id="r-4" data-name="r" class="cls-2" d="M8.58,9.21A.19.19,0,0,0,8.37,9a7,7,0,0,0-.85.21,7.29,7.29,0,0,0,.85.2A.19.19,0,0,0,8.58,9.21Z"/></g><g id="r4-2" data-name="r4"><path id="r-5" data-name="r" class="cls-2" d="M12.49,6.59a.18.18,0,0,0,.27-.11,8.29,8.29,0,0,0,.13-.86,7.61,7.61,0,0,0-.51.71A.18.18,0,0,0,12.49,6.59Z"/><path id="r-6" data-name="r" class="cls-2" d="M14,10.29a.2.2,0,0,0,.11.27c.14,0,.87.14.87.14s-.58-.46-.71-.52A.19.19,0,0,0,14,10.29Z"/><path id="r-7" data-name="r" class="cls-2" d="M10.32,11.82a.19.19,0,0,0-.26.11,6.89,6.89,0,0,0-.14.87,6.12,6.12,0,0,0,.51-.71A.18.18,0,0,0,10.32,11.82Z"/><path id="r-8" data-name="r" class="cls-2" d="M8.79,8.13a.19.19,0,0,0-.11-.27,6.52,6.52,0,0,0-.86-.14,6.12,6.12,0,0,0,.71.51A.17.17,0,0,0,8.79,8.13Z"/></g><g id="r4-3" data-name="r4"><path id="r-9" data-name="r" class="cls-2" d="M13.41,7.21a.2.2,0,0,0,.29,0c.1-.11.46-.75.46-.75a6.14,6.14,0,0,0-.75.46A.18.18,0,0,0,13.41,7.21Z"/><path id="r-10" data-name="r" class="cls-2" d="M13.41,11.21a.18.18,0,0,0,0,.29,7.73,7.73,0,0,0,.75.46,7.73,7.73,0,0,0-.46-.75A.18.18,0,0,0,13.41,11.21Z"/><path id="r-11" data-name="r" class="cls-2" d="M9.41,11.21a.18.18,0,0,0-.29,0,6.14,6.14,0,0,0-.46.75s.64-.36.75-.46A.2.2,0,0,0,9.41,11.21Z"/><path id="r-12" data-name="r" class="cls-2" d="M9.41,7.21a.2.2,0,0,0,0-.29,7,7,0,0,0-.75-.46,7,7,0,0,0,.46.75A.2.2,0,0,0,9.41,7.21Z"/></g><g id="r4-4" data-name="r4"><path id="r-13" data-name="r" class="cls-2" d="M14,8.13a.19.19,0,0,0,.27.1A7.14,7.14,0,0,0,15,7.72a6.89,6.89,0,0,0-.87.14A.19.19,0,0,0,14,8.13Z"/><path id="r-14" data-name="r" class="cls-2" d="M12.49,11.82a.19.19,0,0,0-.11.27,7.61,7.61,0,0,0,.51.71s-.08-.73-.13-.87A.19.19,0,0,0,12.49,11.82Z"/><path id="r-15" data-name="r" class="cls-2" d="M8.79,10.29a.18.18,0,0,0-.26-.11,7.41,7.41,0,0,0-.71.52s.73-.09.86-.14A.19.19,0,0,0,8.79,10.29Z"/><path id="r-16" data-name="r" class="cls-2" d="M10.32,6.59a.17.17,0,0,0,.11-.26,6.12,6.12,0,0,0-.51-.71,6.52,6.52,0,0,0,.14.86A.17.17,0,0,0,10.32,6.59Z"/></g></g><g id="r16-2" data-name="r16"><g id="r4-5" data-name="r4"><path id="r-17" data-name="r" class="cls-2" d="M12,6.43a.19.19,0,0,0,.24-.16,7.16,7.16,0,0,0,0-.87,7.77,7.77,0,0,0-.37.79A.18.18,0,0,0,12,6.43Z"/><path id="r-18" data-name="r" class="cls-2" d="M14.18,9.76a.18.18,0,0,0,.16.24,7.25,7.25,0,0,0,.88,0,7.14,7.14,0,0,0-.8-.37A.18.18,0,0,0,14.18,9.76Z"/><path id="r-19" data-name="r" class="cls-2" d="M10.86,12a.19.19,0,0,0-.24.16,7.25,7.25,0,0,0,0,.88,5.84,5.84,0,0,0,.36-.8A.18.18,0,0,0,10.86,12Z"/><path id="r-20" data-name="r" class="cls-2" d="M8.63,8.66a.18.18,0,0,0-.16-.24,7.34,7.34,0,0,0-.88,0,8.1,8.1,0,0,0,.8.37A.19.19,0,0,0,8.63,8.66Z"/></g><g id="r4-6" data-name="r4"><path id="r-21" data-name="r" class="cls-2" d="M13,6.86a.19.19,0,0,0,.28-.06A7.8,7.8,0,0,0,13.57,6s-.56.47-.65.59A.2.2,0,0,0,13,6.86Z"/><path id="r-22" data-name="r" class="cls-2" d="M13.76,10.78a.18.18,0,0,0,.06.28,7.8,7.8,0,0,0,.82.31,7.44,7.44,0,0,0-.6-.65A.19.19,0,0,0,13.76,10.78Z"/><path id="r-23" data-name="r" class="cls-2" d="M9.84,11.56a.19.19,0,0,0-.29.06,7.39,7.39,0,0,0-.3.82,6.3,6.3,0,0,0,.64-.6A.18.18,0,0,0,9.84,11.56Z"/><path id="r-24" data-name="r" class="cls-2" d="M9.06,7.64A.19.19,0,0,0,9,7.35a8.21,8.21,0,0,0-.82-.3,7.33,7.33,0,0,0,.59.64A.2.2,0,0,0,9.06,7.64Z"/></g><g id="r4-7" data-name="r4"><path id="r-25" data-name="r" class="cls-2" d="M13.76,7.64a.18.18,0,0,0,.28.05,6.3,6.3,0,0,0,.6-.64,7.39,7.39,0,0,0-.82.3A.19.19,0,0,0,13.76,7.64Z"/><path id="r-26" data-name="r" class="cls-2" d="M13,11.56a.19.19,0,0,0-.06.28,7.44,7.44,0,0,0,.65.6,7.8,7.8,0,0,0-.31-.82A.19.19,0,0,0,13,11.56Z"/><path id="r-27" data-name="r" class="cls-2" d="M9.06,10.78a.2.2,0,0,0-.29-.06c-.12.09-.59.65-.59.65A8.74,8.74,0,0,0,9,11.06.19.19,0,0,0,9.06,10.78Z"/><path id="r-28" data-name="r" class="cls-2" d="M9.84,6.86a.2.2,0,0,0,.05-.29A7.33,7.33,0,0,0,9.25,6a7.39,7.39,0,0,0,.3.82A.19.19,0,0,0,9.84,6.86Z"/></g><g id="r4-8" data-name="r4"><path id="r-29" data-name="r" class="cls-2" d="M14.18,8.66a.19.19,0,0,0,.24.16,7.14,7.14,0,0,0,.8-.37,7.25,7.25,0,0,0-.88,0A.18.18,0,0,0,14.18,8.66Z"/><path id="r-30" data-name="r" class="cls-2" d="M12,12a.18.18,0,0,0-.16.24,7.14,7.14,0,0,0,.37.8,7.25,7.25,0,0,0,0-.88A.19.19,0,0,0,12,12Z"/><path id="r-31" data-name="r" class="cls-2" d="M8.63,9.76a.18.18,0,0,0-.24-.16,8.1,8.1,0,0,0-.8.37,7.34,7.34,0,0,0,.88,0A.19.19,0,0,0,8.63,9.76Z"/><path id="r-32" data-name="r" class="cls-2" d="M10.86,6.43A.18.18,0,0,0,11,6.19a6.22,6.22,0,0,0-.36-.79,7.16,7.16,0,0,0,0,.87A.18.18,0,0,0,10.86,6.43Z"/></g></g></g><g id="bird"><path class="cls-2" d="M11,14.6a.63.63,0,0,0-.19,0,2.44,2.44,0,0,0-.26.06h-.09s0,0,0,.05v0s0,0,0,0l0,0h-.09a.05.05,0,0,1,0,0h-.1l0,0-.05,0a.46.46,0,0,0-.17.14.17.17,0,0,0,0,.1.17.17,0,0,0,0,.12s0,0,0-.05l.12-.06s0,0,0,0,0,.08,0,.05a1.1,1.1,0,0,1,.4-.08L11,15l.55,0a1.22,1.22,0,0,0,.27,0s0,0,.06,0a.5.5,0,0,0-.13,0H11.4a1.35,1.35,0,0,1-.29,0s0,0-.07,0l-.11,0a.4.4,0,0,1-.19,0,2.09,2.09,0,0,1,.14-.17l-.11,0L11,14.6Z"/><path class="cls-2" d="M13.84,15.24c-.13.08-.23-.06-.34-.11s-.09.19-.17.26-.2,0-.19-.13c-.1.09-.16.3-.33.27s-.14-.21-.21,0-.18.19-.25.07-.08-.22-.14-.06a.2.2,0,0,1-.28.15c-.07-.05.05-.25,0-.24s-.2.29-.38.28.05-.21,0-.29c-.09.11-.18.28-.34.29s0-.23,0-.26-.32.26-.52.21a.69.69,0,0,1,.67-.42,6,6,0,0,0,1.4-.12c.07,0,.24-.11.18-.21s.14-.05.16-.14.09-.1.19-.11c.46,0,.9.07,1.35.09a.3.3,0,0,1-.4.3c-.1,0-.24-.21-.21,0s0,.2-.09.26M10,14.79c.1.1.17,0,.27-.06a3.77,3.77,0,0,0,.9-.5,1.22,1.22,0,0,1,.54-.37c.45-.14.93-.12,1.37-.25a4,4,0,0,1,1.41-.9.34.34,0,0,0,.19-.22,2.07,2.07,0,0,1,.74-.73.65.65,0,0,1,.47-.09.79.79,0,0,1-.26.49c.11,0,.2-.07.31-.07,0,.2-.17.3-.28.42.06,0,.3,0,.17.1a4.45,4.45,0,0,0-.51.33c.14,0,.16.05,0,.11s-.23.07-.24.17,0,.13-.11.15-.24.08-.08.17a.34.34,0,0,1-.29.1c0,.09.08.21,0,.25a1.93,1.93,0,0,1-1,.41A2.15,2.15,0,0,0,14.89,14c0-.06.32-.13.17-.18s-.23-.06-.24-.12c.21-.12.48-.08.7-.16,0-.07-.17-.05-.23-.07s-.15-.05,0-.06a1.43,1.43,0,0,0,.57-.19c-.13-.06-.3,0-.44-.06a3.28,3.28,0,0,0,.74-.27c.1-.11-.13-.07-.19-.07s-.19,0,0-.1.58-.31.76-.58c0-.06.1-.25,0-.18s-.34.26-.54.2a4.61,4.61,0,0,0,1.06-1.1c0-.13-.18-.14-.23,0a3.42,3.42,0,0,1-.82.7,5.5,5.5,0,0,0,.8-1.05c0-.11.18-.24.11-.37s-.26,0-.32.11a4.2,4.2,0,0,1-.61.78,3.15,3.15,0,0,0,.47-1.39c0-.1,0-.25-.16-.23s-.09.18-.13.27a3.15,3.15,0,0,1-.36,1A2.16,2.16,0,0,0,16,10c0-.12-.23-.07-.2.05A4.41,4.41,0,0,1,13.66,13a4.54,4.54,0,0,1-1.59.54,3.4,3.4,0,0,0-.46.06c-.35.27-.56.71-1,.85-.2.1-.46.12-.6.3a.22.22,0,0,0,0,.08"/><path class="cls-2" d="M11.32,13.55a1.55,1.55,0,0,1-.19.36,1.37,1.37,0,0,0-.93-.23,1.19,1.19,0,0,1-.75-.23,6.31,6.31,0,0,0-.62-.54,1.74,1.74,0,0,1-.62-.28c-.37-.31-.58-.76-1-1.08A2,2,0,0,0,7,11.37c-.07,0,0,.18-.13.1s-.17,0-.19,0A.93.93,0,0,1,7,12c-.07,0-.21,0-.25,0a2,2,0,0,0,.38.39,1.07,1.07,0,0,0-.23,0,1.14,1.14,0,0,0,.49.28c0,.05-.06.15,0,.19s.21,0,.1.11a.09.09,0,0,0,0,.16c.06,0,.19,0,.2.09s-.22.12-.08.17a1.06,1.06,0,0,0,.43.12c-.07.06-.17.1-.24.16a5.94,5.94,0,0,0,1.1.46,2.5,2.5,0,0,0,.45.12,3.43,3.43,0,0,1-1.29-.34l-.65-.26c.1,0,.21-.06.31-.11a1.89,1.89,0,0,1-.62-.16c0-.05.14-.06.2-.08s.17-.06,0-.07a1.26,1.26,0,0,1-.47-.12c0-.05.15,0,.21-.06A.4.4,0,0,0,7.29,13c-.24-.1-.55,0-.74-.24,0-.08.13,0,.19,0a1,1,0,0,0,.39,0,3,3,0,0,1-1-.58c0-.05-.12-.17,0-.19s.35.25.58.22c0,0-.13-.11-.17-.16a4.14,4.14,0,0,1-.87-.95c0-.12.18-.14.23,0a3.89,3.89,0,0,0,.78.68c.11,0-.06-.07-.09-.11a5.71,5.71,0,0,1-.75-1.07c0-.07-.1-.2,0-.23s.21,0,.27.11a5.35,5.35,0,0,0,.62.8,3.33,3.33,0,0,1-.47-1.39c0-.09,0-.24.15-.24s.09.13.13.19a3.43,3.43,0,0,0,.37,1.09A2.32,2.32,0,0,1,6.81,10,.1.1,0,0,1,7,10c0,.13.06.29.11.43a4.36,4.36,0,0,0,1.72,2.36,4.55,4.55,0,0,0,2.28.78h.22"/><circle class="cls-2" cx="10.29" cy="14.77" r="0.04"/><circle class="cls-3" cx="10.28" cy="14.77" r="0.02"/></g><g id="ornament"><g id="oh"><g id="oq"><path id="op" class="cls-2" d="M1.84,6.47a.62.62,0,0,1-.63.6.51.51,0,0,1-.57-.52.84.84,0,0,1,.11-.43L1.6,4.34a.5.5,0,0,0,0-.23.31.31,0,0,0-.62,0c0,.2.1.29.2.29s.18-.06.18-.15,0-.09-.07-.09-.08.15-.08.15a.1.1,0,0,1-.07-.14.14.14,0,0,1-.11-.06.2.2,0,0,1,.11-.06c0-.08,0-.12.08-.14a.1.1,0,0,0,0,.09.23.23,0,0,1,.3.22.32.32,0,0,1-.41.33.19.19,0,0,1,.11.16.34.34,0,0,0-.11,0,.28.28,0,0,1,.08.2c-.05,0-.1-.06-.16,0,.1.19,0,.45-.33.52A.69.69,0,0,0,.9,5c0-.45-.13-.53-.13-.85A.47.47,0,0,1,1,3.74H1A.28.28,0,0,1,.8,3.62a1.23,1.23,0,0,1,.66,0,.49.49,0,0,1,.34.24.7.7,0,0,1,0,.56L.93,6.26a.76.76,0,0,0-.06.26.33.33,0,0,0,.34.32.28.28,0,0,0,.29-.25c0-.09-.05-.14-.12-.14s-.15.14-.12.23-.16-.13-.14-.22A.29.29,0,0,1,1,6.37a.21.21,0,0,1,.17-.09.18.18,0,0,1,.14-.22c0,.1,0,.21.12.21a.31.31,0,0,1,.28.1c0-.11,0-.52,0-.52,0-.16-.21-.16-.35-.11a.33.33,0,0,1,.41-.25.21.21,0,0,1-.12-.19.52.52,0,0,1,.19-.36l0,1.53Z"/><path id="op-2" data-name="op" class="cls-2" d="M1.84,7.65a.62.62,0,0,0-.63-.6.51.51,0,0,0-.57.52A.84.84,0,0,0,.75,8L1.6,9.77a.57.57,0,0,1,0,.24A.31.31,0,0,1,1,10c0-.19.1-.28.2-.28s.18,0,.18.14,0,.09-.07.09-.08-.14-.08-.14a.09.09,0,0,0-.07.13.19.19,0,0,0-.11.07.2.2,0,0,0,.11.06c0,.08,0,.12.08.14a.1.1,0,0,1,0-.09.23.23,0,0,0,.3-.22.32.32,0,0,0-.41-.33.19.19,0,0,0,.11-.16.34.34,0,0,1-.11,0,.29.29,0,0,0,.08-.21c-.05,0-.1.07-.16,0,.1-.19,0-.45-.33-.52a.67.67,0,0,1,.17.42c0,.45-.13.53-.13.84a.47.47,0,0,0,.21.38H1a.28.28,0,0,0-.18.13,1.13,1.13,0,0,0,.66,0,.46.46,0,0,0,.34-.23.7.7,0,0,0,0-.56L.93,7.86A.82.82,0,0,1,.87,7.6a.33.33,0,0,1,.34-.32.28.28,0,0,1,.29.25c0,.09-.05.14-.12.14s-.15-.14-.12-.23-.16.13-.14.22A.24.24,0,0,0,1,7.75a.21.21,0,0,0,.17.09.18.18,0,0,0,.14.22c0-.1,0-.21.12-.21a.31.31,0,0,0,.28-.1c0,.11,0,.52,0,.52,0,.16-.21.16-.35.11a.33.33,0,0,0,.41.25.2.2,0,0,0-.12.19.52.52,0,0,0,.19.36l0-1.53Z"/></g><g id="oq-2" data-name="oq"><path id="op-3" data-name="op" class="cls-2" d="M1.77,6.47a.62.62,0,0,0,.63.6A.51.51,0,0,0,3,6.55a.84.84,0,0,0-.11-.43L2,4.34a.51.51,0,0,1,0-.23.31.31,0,0,1,.62,0c0,.2-.1.29-.21.29s-.17-.06-.17-.15,0-.09.07-.09.08.15.08.15a.1.1,0,0,0,.07-.14.14.14,0,0,0,.11-.06.2.2,0,0,0-.11-.06c0-.08,0-.12-.08-.14a.28.28,0,0,1,0,.09.23.23,0,0,0-.3.22.32.32,0,0,0,.4.33.2.2,0,0,0-.1.16l.1,0a.34.34,0,0,0-.07.2s.1-.06.16,0c-.1.19,0,.45.33.52A.63.63,0,0,1,2.71,5c0-.45.13-.53.13-.85a.47.47,0,0,0-.21-.37h0a.28.28,0,0,0,.18-.13,1.23,1.23,0,0,0-.66,0,.54.54,0,0,0-.35.24.74.74,0,0,0,0,.56c.13.25.7,1.46.87,1.84a.59.59,0,0,1,.07.26.33.33,0,0,1-.34.32.28.28,0,0,1-.29-.25c0-.09.05-.14.11-.14s.16.14.13.23.16-.13.14-.22a.24.24,0,0,0,.16-.09.19.19,0,0,0-.16-.09.18.18,0,0,0-.14-.22c0,.1,0,.21-.13.21a.3.3,0,0,0-.27.1c0-.11,0-.52,0-.52,0-.16.21-.16.34-.11a.31.31,0,0,0-.4-.25A.21.21,0,0,0,2,5.3a.5.5,0,0,0-.2-.36l0,1.53Z"/><path id="op-4" data-name="op" class="cls-2" d="M1.77,7.65a.62.62,0,0,1,.63-.6A.51.51,0,0,1,3,7.57.84.84,0,0,1,2.86,8L2,9.77A.58.58,0,0,0,2,10a.31.31,0,0,0,.62,0c0-.19-.1-.28-.21-.28s-.17,0-.17.14,0,.09.07.09.08-.14.08-.14a.09.09,0,0,1,.07.13.19.19,0,0,1,.11.07.2.2,0,0,1-.11.06c0,.08,0,.12-.08.14a.28.28,0,0,0,0-.09.23.23,0,0,1-.3-.22.32.32,0,0,1,.4-.33.2.2,0,0,1-.1-.16l.1,0a.34.34,0,0,1-.07-.21s.1.07.16,0c-.1-.19,0-.45.33-.52a.61.61,0,0,0-.17.42c0,.45.13.53.13.84a.47.47,0,0,1-.21.38h0a.28.28,0,0,1,.18.13,1.13,1.13,0,0,1-.66,0,.5.5,0,0,1-.35-.23.74.74,0,0,1,0-.56c.13-.25.7-1.46.87-1.84a.63.63,0,0,0,.07-.26.33.33,0,0,0-.34-.32.28.28,0,0,0-.29.25c0,.09.05.14.11.14s.16-.14.13-.23.16.13.14.22a.21.21,0,0,1,.16.09.19.19,0,0,1-.16.09.18.18,0,0,1-.14.22c0-.1,0-.21-.13-.21A.3.3,0,0,1,2,7.75c0,.11,0,.52,0,.52,0,.16.21.16.34.11a.31.31,0,0,1-.4.25A.2.2,0,0,1,2,8.82a.5.5,0,0,1-.2.36l0-1.53Z"/></g></g><g id="oh-2" data-name="oh"><g id="oq-3" data-name="oq"><path id="op-5" data-name="op" class="cls-2" d="M1.84,14.53a.62.62,0,0,0-.63-.6.51.51,0,0,0-.57.52.84.84,0,0,0,.11.43l.85,1.78a.5.5,0,0,1,0,.23.31.31,0,0,1-.62,0c0-.2.1-.29.2-.29s.18.06.18.15,0,.09-.07.09-.08-.15-.08-.15a.1.1,0,0,0-.07.14.14.14,0,0,0-.11.06.2.2,0,0,0,.11.06c0,.08,0,.12.08.14a.1.1,0,0,1,0-.09.23.23,0,0,0,.3-.22.32.32,0,0,0-.41-.33.19.19,0,0,0,.11-.16.34.34,0,0,1-.11,0,.28.28,0,0,0,.08-.2c-.05,0-.1.06-.16,0,.1-.19,0-.45-.33-.52A.69.69,0,0,1,.9,16c0,.45-.13.53-.13.85a.47.47,0,0,0,.21.37H1a.28.28,0,0,0-.18.13,1.23,1.23,0,0,0,.66,0,.49.49,0,0,0,.34-.24.7.7,0,0,0,0-.56L.93,14.74a.76.76,0,0,1-.06-.26.33.33,0,0,1,.34-.32.28.28,0,0,1,.29.25c0,.09-.05.14-.12.14s-.15-.14-.12-.23-.16.13-.14.22a.29.29,0,0,0-.17.09.21.21,0,0,0,.17.09.18.18,0,0,0,.14.22c0-.1,0-.21.12-.21a.31.31,0,0,0,.28-.1c0,.11,0,.52,0,.52,0,.16-.21.16-.35.11a.33.33,0,0,0,.41.25.21.21,0,0,0-.12.19.52.52,0,0,0,.19.36l0-1.53Z"/><path id="op-6" data-name="op" class="cls-2" d="M1.84,13.35a.62.62,0,0,1-.63.6.51.51,0,0,1-.57-.52A.84.84,0,0,1,.75,13l.85-1.77a.57.57,0,0,0,0-.24A.31.31,0,0,0,1,11c0,.19.1.28.2.28s.18,0,.18-.14,0-.09-.07-.09-.08.14-.08.14a.09.09,0,0,1-.07-.13A.19.19,0,0,1,1.07,11a.2.2,0,0,1,.11-.06c0-.08,0-.12.08-.14a.1.1,0,0,0,0,.09.23.23,0,0,1,.3.22.32.32,0,0,1-.41.33.19.19,0,0,1,.11.16.34.34,0,0,0-.11,0,.29.29,0,0,1,.08.21c-.05,0-.1-.07-.16,0,.1.19,0,.45-.33.52a.67.67,0,0,0,.17-.42c0-.45-.13-.53-.13-.84A.47.47,0,0,1,1,10.62H1A.28.28,0,0,1,.8,10.5a1.13,1.13,0,0,1,.66,0,.46.46,0,0,1,.34.23.7.7,0,0,1,0,.56L.93,13.14a.82.82,0,0,0-.06.26.33.33,0,0,0,.34.32.28.28,0,0,0,.29-.25c0-.09-.05-.14-.12-.14s-.15.14-.12.23-.16-.13-.14-.22A.24.24,0,0,1,1,13.25a.21.21,0,0,1,.17-.09.18.18,0,0,1,.14-.22c0,.1,0,.21.12.21a.31.31,0,0,1,.28.1c0-.11,0-.52,0-.52,0-.16-.21-.16-.35-.11a.33.33,0,0,1,.41-.25.2.2,0,0,1-.12-.19.52.52,0,0,1,.19-.36l0,1.53Z"/></g><g id="oq-4" data-name="oq"><path id="op-7" data-name="op" class="cls-2" d="M1.77,14.53a.62.62,0,0,1,.63-.6.51.51,0,0,1,.57.52.84.84,0,0,1-.11.43L2,16.66a.51.51,0,0,0,0,.23.31.31,0,0,0,.62,0c0-.2-.1-.29-.21-.29s-.17.06-.17.15,0,.09.07.09.08-.15.08-.15a.1.1,0,0,1,.07.14.14.14,0,0,1,.11.06.2.2,0,0,1-.11.06c0,.08,0,.12-.08.14a.28.28,0,0,0,0-.09.23.23,0,0,1-.3-.22.32.32,0,0,1,.4-.33.2.2,0,0,1-.1-.16l.1,0a.34.34,0,0,1-.07-.2s.1.06.16,0c-.1-.19,0-.45.33-.52a.63.63,0,0,0-.17.42c0,.45.13.53.13.85a.47.47,0,0,1-.21.37h0a.28.28,0,0,1,.18.13,1.23,1.23,0,0,1-.66,0,.54.54,0,0,1-.35-.24.74.74,0,0,1,0-.56c.13-.25.7-1.46.87-1.84a.59.59,0,0,0,.07-.26.33.33,0,0,0-.34-.32.28.28,0,0,0-.29.25c0,.09.05.14.11.14s.16-.14.13-.23.16.13.14.22a.24.24,0,0,1,.16.09.19.19,0,0,1-.16.09.18.18,0,0,1-.14.22c0-.1,0-.21-.13-.21a.3.3,0,0,1-.27-.1c0,.11,0,.52,0,.52,0,.16.21.16.34.11a.31.31,0,0,1-.4.25A.21.21,0,0,1,2,15.7a.5.5,0,0,1-.2.36l0-1.53Z"/><path id="op-8" data-name="op" class="cls-2" d="M1.77,13.35a.62.62,0,0,0,.63.6A.51.51,0,0,0,3,13.43.84.84,0,0,0,2.86,13L2,11.23A.58.58,0,0,1,2,11a.31.31,0,0,1,.62,0c0,.19-.1.28-.21.28s-.17,0-.17-.14,0-.09.07-.09.08.14.08.14a.09.09,0,0,0,.07-.13A.19.19,0,0,0,2.54,11a.2.2,0,0,0-.11-.06c0-.08,0-.12-.08-.14a.28.28,0,0,1,0,.09.23.23,0,0,0-.3.22.32.32,0,0,0,.4.33.2.2,0,0,0-.1.16l.1,0a.34.34,0,0,0-.07.21s.1-.07.16,0c-.1.19,0,.45.33.52a.61.61,0,0,1-.17-.42c0-.45.13-.53.13-.84a.47.47,0,0,0-.21-.38h0a.28.28,0,0,0,.18-.13,1.13,1.13,0,0,0-.66,0,.5.5,0,0,0-.35.23.74.74,0,0,0,0,.56c.13.25.7,1.46.87,1.84a.63.63,0,0,1,.07.26.33.33,0,0,1-.34.32.28.28,0,0,1-.29-.25c0-.09.05-.14.11-.14s.16.14.13.23.16-.13.14-.22a.21.21,0,0,0,.16-.09.19.19,0,0,0-.16-.09.18.18,0,0,0-.14-.22c0,.1,0,.21-.13.21a.3.3,0,0,0-.27.1c0-.11,0-.52,0-.52,0-.16.21-.16.34-.11a.31.31,0,0,0-.4-.25A.2.2,0,0,0,2,12.18a.5.5,0,0,0-.2-.36l0,1.53Z"/></g></g></g></svg>