<svg id="Layer_1" data-name="Layer 1" xmlns="http://www.w3.org/2000/svg" viewBox="0 0 21 21"><defs><style>.cls-1{fill:#1c4c9e;}.cls-2{fill:#cd082f;}.cls-3{fill:#fed20f;}.cls-4{fill:#010101;}.cls-5{fill:#f5d40a;}.cls-6{fill:#af7f55;}.cls-7{fill:#d1072a;}.cls-8{fill:#0e7755;}.cls-9{fill:#284e9f;}</style></defs><path class="cls-1" d="M2,3H6.2V18H2a2,2,0,0,1-2-2V5A2,2,0,0,1,2,3Z"/><path class="cls-2" d="M21,5V16a2,2,0,0,1-2,2H15.2V3H19A2,2,0,0,1,21,5Z"/><rect class="cls-3" x="5.8" y="3" width="9.41" height="15"/><path class="cls-4" d="M9.36,5a.29.29,0,0,0-.17,0,.13.13,0,0,1,.1.13v.16H9.13A.15.15,0,0,1,9,5.25a.31.31,0,0,0,0,.16.39.39,0,0,0,0,.17.14.14,0,0,1,.14-.1h.16v.78a.14.14,0,0,1-.09.13c.08,0,.14.12.16.17s.08-.16.16-.17a.14.14,0,0,1-.09-.13V5.48h.16a.13.13,0,0,1,.13.1.31.31,0,0,0,0-.34.12.12,0,0,1-.13.1H9.43V5.18a.13.13,0,0,1,.1-.13.29.29,0,0,0-.17,0Z"/><path class="cls-5" d="M9.36,5h-.1a.16.16,0,0,1,.06.13v.16h0v0H9.13A.2.2,0,0,1,9,5.32a.24.24,0,0,0,0,.09.3.3,0,0,0,0,.1.16.16,0,0,1,.13-.06h.19v0h0v.78a.14.14,0,0,1-.06.12l.07.06,0,.06,0-.06.07-.06a.14.14,0,0,1-.06-.12V5.45h.19a.16.16,0,0,1,.13.06.3.3,0,0,0,0-.1.24.24,0,0,0,0-.09.2.2,0,0,1-.13.06H9.4v0h0V5.18a.19.19,0,0,1,0-.13H9.36"/><path class="cls-4" d="M11.39,7.85a.91.91,0,0,1-.24-.24,1.43,1.43,0,0,1-.2-.77c0-.12.13-.25.13-.35s0-.23,0-.23a.4.4,0,0,1,.13.09s0-.24-.08-.28,0,0,.14,0-.18-.18-.18-.18,0,0,0,0a.29.29,0,0,1,.13,0l-.15,0a2.85,2.85,0,0,1-.42-.17,1.25,1.25,0,0,0-.56-.13.48.48,0,0,0-.26,0c-.06,0,0,.09-.08.11a.3.3,0,0,1-.18,0c-.27,0-.28.29-.28.29a.26.26,0,0,1,.2-.1c.2,0,.35.11.35.15a0,0,0,0,1,0,0c-.13,0-.33-.08-.44-.08V6a.64.64,0,0,1,.48.72,1.76,1.76,0,0,1-.2.92.91.91,0,0,1-.24.24l1,.18Z"/><g id="eagle_half" data-name="eagle half"><path class="cls-4" d="M10.42,7.64l-1,.21a2.15,2.15,0,0,1-.4-.15,1.3,1.3,0,0,0-.69-.3V7.17c0-.13.05-.24.05-.36s-.49-.47-.82-.66a1.89,1.89,0,0,0-.85,1.06s0,5.08,0,6.84a.78.78,0,0,1-.06.25,2,2,0,0,0,.56-.69v.09a1.48,1.48,0,0,0,.55-.61v.08a5.37,5.37,0,0,0,.54-1.44l.5.5a3.19,3.19,0,0,1-.25.44h.1c0,.05-.29.41-.37.55s-.12.07-.24.07a.62.62,0,0,0-.34.22.4.4,0,0,0-.07.2.38.38,0,0,0,.08.17l0-.05.22.28a.15.15,0,0,0,.16,0,1.52,1.52,0,0,0,.26-.25c0-.06,0-.13.09-.2S9,13,9,13V13a2.52,2.52,0,0,1,.47-.47l.4.19s-.75,1.74-1.43,2c0,0,.3.13.66.32l.16.08L9.45,15c.21-.28.42-.62.42-.62a1.88,1.88,0,0,1-.29.69l-.12.2.14.08a2.45,2.45,0,0,1,.82.69l.08-.22-.08-.22V7.93l0-.11Z"/><path class="cls-6" d="M10.42,15.56a3.05,3.05,0,0,0-.68-.45,3.76,3.76,0,0,0,.45-1.86,4.33,4.33,0,0,1-.33.83,7,7,0,0,1-.57.82l-.45-.17a6.31,6.31,0,0,0,1.19-2l-.62-.29a2.85,2.85,0,0,1-.31.32s0-.13,0-.18a.35.35,0,0,1-.14.07s0-.09,0-.15a.33.33,0,0,1-.17,0c.09,0,.2-.3.2-.3l-.6-.8a3.63,3.63,0,0,1-.45,1.22V8.35l.19.18.29-.27v-.2l-.26.24V7.68l.09-.13A1.62,1.62,0,0,0,8.51,8c0-.1.19-.2.19-.2s.06.16.15.2a1.88,1.88,0,0,1,.23-.18.45.45,0,0,0-.23.09c-.06,0-.08-.24-.08-.24s-.24.12-.28.2-.12-.2-.15-.27h.18a.56.56,0,0,1,.25.08l.31.15a1,1,0,0,0,.36.07L9.24,8a1.26,1.26,0,0,0,.5-.11A1,1,0,0,0,10,7.72.83.83,0,0,1,9.81,8a.72.72,0,0,0,.5-.26.86.86,0,0,0,.11.21h.11v7.41Z"/><path class="cls-6" d="M8.19,6.84v.54a1,1,0,0,1-.32-.31V7a.17.17,0,0,1,.06-.11l-.07,0a.22.22,0,0,0,0,.12V7l-.2.21L7.43,7V6.88a.24.24,0,0,1,.07-.13l-.07,0a.28.28,0,0,0-.06.15v.06l-.23.23L7,6.92a2.92,2.92,0,0,1,.56-.55,4.19,4.19,0,0,0,.6.47Z"/><path class="cls-6" d="M7.06,7.23v.34l-.16.14v-.5A.51.51,0,0,1,7,7Z"/><path class="cls-6" d="M7.54,7.36v.21l-.18.17V7.09Z"/><path class="cls-6" d="M7.3,7.74l-.18-.17V7.33l.18-.19Z"/><path class="cls-6" d="M8.12,7.48a.86.86,0,0,1-.27.27V7.18S8,7.43,8.12,7.48Z"/><path class="cls-6" d="M7.79,7.21v.53l-.18-.17V7.38Z"/><path class="cls-6" d="M7.06,7.77V8.3L6.9,8.15V7.92Z"/><path class="cls-6" d="M7.3,7.94v.19l-.18.17V7.77Z"/><path class="cls-6" d="M7.54,7.77V8.3l-.18-.17V7.94Z"/><path class="cls-6" d="M7.79,7.94v.19l-.18.17V7.77Z"/><path class="cls-6" d="M8,8.3l-.18-.17V8A.62.62,0,0,0,8,7.77Z"/><path class="cls-6" d="M7.57,8.53l.19-.18v4.34s0,.21,0,.35l-.4.41V8.35Z"/><path class="cls-6" d="M7.28,13.29a1.05,1.05,0,0,1-.38.53V8.35l.19.18.19-.18Z"/><path class="cls-7" d="M8.85,12.82l.14-.1,0,.11-.57.77a.79.79,0,0,0-.07.2s-.06,0-.06-.08v-.11a.16.16,0,0,1-.12.05c0-.06.12-.13.13-.22-.1.07-.18,0-.29.07s-.15.08-.18.08,0,0,0-.06a.52.52,0,0,1,.27-.17s.21,0,.25,0l.44-.68h.05a.31.31,0,0,0,0,.17Z"/><path class="cls-7" d="M8,13.58a0,0,0,0,1,0,0l-.06.05h0a0,0,0,0,1,0,0l.06-.05H8Z"/><path class="cls-7" d="M8.06,13.65a0,0,0,0,1,0,.07l-.16.13a.05.05,0,0,1-.06-.08L8,13.64H8S8.05,13.63,8.06,13.65Z"/><path class="cls-7" d="M8.15,13.75a.06.06,0,0,1,0,.07L8,14a0,0,0,0,1-.07,0,0,0,0,0,1,0-.07l.15-.13h0l.05,0Z"/><path class="cls-7" d="M8.2,13.83l0,0a0,0,0,0,1,0,.07l-.15.13A0,0,0,0,1,8,14,0,0,0,0,1,8,14l.15-.13Z"/></g><g id="eagle_half-2" data-name="eagle half"><path class="cls-4" d="M10.42,7.64l1,.21a1.89,1.89,0,0,0,.39-.15,1.33,1.33,0,0,1,.69-.3V7.17c0-.13,0-.24,0-.36s.48-.47.81-.66a1.91,1.91,0,0,1,.86,1.06s0,5.08,0,6.84a.78.78,0,0,0,.06.25,1.91,1.91,0,0,1-.57-.69v.09a1.55,1.55,0,0,1-.55-.61v.08a5,5,0,0,1-.54-1.44l-.51.5a3.47,3.47,0,0,0,.26.44h-.1c0,.05.28.41.36.55s.13.07.24.07a.64.64,0,0,1,.35.22.39.39,0,0,1,.06.2.4.4,0,0,1-.07.17l0-.05-.23.28a.15.15,0,0,1-.16,0,1.48,1.48,0,0,1-.25-.25c0-.06,0-.13-.09-.2L11.8,13V13a2.52,2.52,0,0,0-.47-.47l-.41.19s.76,1.74,1.43,2c0,0-.29.13-.65.32l-.16.08a1.41,1.41,0,0,1-.14-.18c-.22-.28-.43-.62-.43-.62a1.79,1.79,0,0,0,.3.69,1.51,1.51,0,0,0,.12.2l-.15.08a2.4,2.4,0,0,0-.81.69l-.09-.22.09-.22V7.93l-.05-.11Z"/><path class="cls-6" d="M10.42,15.56a2.83,2.83,0,0,1,.68-.45,3.65,3.65,0,0,1-.45-1.86,4.78,4.78,0,0,0,.32.83,7,7,0,0,0,.57.82l.45-.17a6.31,6.31,0,0,1-1.19-2l.62-.29a4.19,4.19,0,0,0,.31.32l.06-.18s.09.07.13.07l0-.15a.29.29,0,0,0,.16,0c-.09,0-.19-.3-.19-.3l.59-.8A3.63,3.63,0,0,0,13,12.69V8.35l-.19.18-.28-.27v-.2l.25.24V7.68l-.08-.13a1.88,1.88,0,0,1-.33.42c0-.1-.2-.2-.2-.2s-.06.16-.15.2a1.34,1.34,0,0,0-.23-.18.51.51,0,0,1,.24.09c.06,0,.07-.24.07-.24a1.07,1.07,0,0,1,.29.2s.12-.2.14-.27h-.18a.56.56,0,0,0-.25.08l-.31.15a.93.93,0,0,1-.36.07L11.6,8a1.23,1.23,0,0,1-.5-.11,1.07,1.07,0,0,1-.22-.15A.83.83,0,0,0,11,8a.67.67,0,0,1-.49-.26,1.46,1.46,0,0,1-.11.21h-.11v7.41Z"/><path class="cls-6" d="M12.64,6.84v.54c.11,0,.24-.22.31-.31V7a.16.16,0,0,0,0-.11l.06,0A.17.17,0,0,1,13,7V7l.2.21L13.4,7V6.88a.22.22,0,0,0-.06-.13l.06,0a.3.3,0,0,1,.07.15v.06l.22.23.11-.24a2.44,2.44,0,0,0-.56-.55,4.19,4.19,0,0,1-.6.47Z"/><path class="cls-6" d="M13.78,7.23v.34l.16.14v-.5A.38.38,0,0,0,13.88,7Z"/><path class="cls-6" d="M13.29,7.36v.21l.18.17V7.09Z"/><path class="cls-6" d="M13.54,7.74l.18-.17V7.33l-.18-.19Z"/><path class="cls-6" d="M12.71,7.48a1.15,1.15,0,0,0,.27.27V7.18A.8.8,0,0,1,12.71,7.48Z"/><path class="cls-6" d="M13.05,7.21v.53l.18-.17V7.38Z"/><path class="cls-6" d="M13.78,7.77V8.3l.16-.15V7.92Z"/><path class="cls-6" d="M13.54,7.94v.19l.18.17V7.77Z"/><path class="cls-6" d="M13.29,7.77V8.3l.18-.17V7.94Z"/><path class="cls-6" d="M13.05,7.94v.19l.18.17V7.77Z"/><path class="cls-6" d="M12.8,8.3,13,8.13V8a.76.76,0,0,1-.18-.18Z"/><path class="cls-6" d="M13.26,8.53l-.19-.18v4.34s0,.21,0,.35l.4.41V8.35Z"/><path class="cls-6" d="M13.56,13.29a1,1,0,0,0,.38.53V8.35l-.19.18-.19-.18Z"/><path class="cls-7" d="M12,12.82l-.14-.1,0,.11.57.77a1,1,0,0,1,.08.2s.06,0,.06-.08a.8.8,0,0,0,0-.11.2.2,0,0,0,.13.05c0-.06-.13-.13-.13-.22.09.07.17,0,.28.07s.15.08.19.08,0,0,0-.06a.49.49,0,0,0-.26-.17s-.22,0-.26,0l-.44-.68h0a.35.35,0,0,1,0,.17Z"/><path class="cls-7" d="M12.87,13.58a0,0,0,0,0,0,0l.07.05h0a0,0,0,0,0,0,0l-.06-.05h0Z"/><path class="cls-7" d="M12.78,13.65a0,0,0,0,0,0,.07l.15.13a0,0,0,0,0,.07,0,0,0,0,0,0,0-.07l-.15-.13h0S12.79,13.63,12.78,13.65Z"/><path class="cls-7" d="M12.69,13.75a0,0,0,0,0,0,.07l.15.13a0,0,0,0,0,.07,0,0,0,0,0,0,0-.07l-.15-.13h0l0,0Z"/><path class="cls-7" d="M12.64,13.83l-.05,0a0,0,0,0,0,0,.07l.15.13a0,0,0,0,0,.07,0,0,0,0,0,0,0-.07l-.16-.13Z"/></g><path class="cls-6" d="M10.19,5.51a1.71,1.71,0,0,1,.67.22L11,5.8a.17.17,0,0,0-.07.08.25.25,0,0,1,.16.11S11,6,11,6.06s.11.07.11.14l-.14,0a2,2,0,0,1,0,.33c0,.09-.13.2-.13.35a1.3,1.3,0,0,0,.21.8.48.48,0,0,0,.12.17c-.25-.13-.43-.29-.43-.44V6.8H10.7v.57a.33.33,0,0,0,0,.16,2,2,0,0,0,.17.38c-.23-.12-.34-.27-.34-.33V6.8h-.07v.79l0,.06-.09.11a.53.53,0,0,1-.09-.11V6.8h-.06v.78c0,.06-.11.21-.34.33a2,2,0,0,0,.17-.38.48.48,0,0,0,0-.16V6.8h-.06v.57c0,.15-.18.31-.43.44a.66.66,0,0,0,.12-.17A1.6,1.6,0,0,0,10,6.7a1,1,0,0,0-.09-.47s0-.13.09-.13.22.12.22.12a.25.25,0,0,0-.08-.15.08.08,0,0,1,0-.06.12.12,0,0,1,.06-.08s-.27-.06-.27-.19,0,0,.08,0,.2.09.32.09l.2,0c.1,0,.32.2.39.19-.08,0-.22-.25-.42-.25l-.2,0c-.08,0-.16-.08-.25-.08H9.84s0,0,0-.07.12-.05.2-.06h.14Z"/><path class="cls-2" d="M9.38,5.82a.21.21,0,0,1,.19-.1h.24c0,.06.13.17.13.28a.47.47,0,0,0-.43-.21.27.27,0,0,0-.13,0Z"/><path class="cls-7" d="M9.9,6l-.09.1A.8.8,0,0,1,9.63,6,.45.45,0,0,0,9.9,6Z"/><path class="cls-4" d="M9.79,5.85s-.08,0-.08,0,0,0,.06,0a.1.1,0,0,1,0,.06Z"/><ellipse class="cls-4" cx="10.12" cy="5.85" rx="0.11" ry="0.09"/><circle class="cls-5" cx="10.13" cy="5.85" r="0.08"/><circle class="cls-4" cx="10.13" cy="5.85" r="0.03"/><polygon class="cls-4" points="8.35 13.92 8.7 14.11 8.62 14.51 8.26 14.31 8.35 13.92"/><path class="cls-4" d="M6.7,10.14l-.13.06L8,13.35h.16Zm1.7,3.72-.11.1.07.15.13-.06Z"/><path class="cls-4" d="M7.15,12.62s.12.25.21.29a.69.69,0,0,0-.2,0,1,1,0,0,0,.5.26.38.38,0,0,0,.3-.08l0-.21a.81.81,0,0,0-.32-.21,2,2,0,0,0-.45-.09Z"/><path class="cls-4" d="M8.06,12.18a.69.69,0,0,0-.21.31.59.59,0,0,0,0,.35L8,13.1a.78.78,0,0,0,.28-.26.68.68,0,0,0,0-.36,1.22,1.22,0,0,0-.17.08.63.63,0,0,0-.12-.38Z"/><path class="cls-4" d="M7.52,12.11a1.2,1.2,0,0,1-.37.05A.54.54,0,0,1,6.83,12s.14-.1.21-.08-.19-.23-.19-.23a.52.52,0,0,1,.31,0,.77.77,0,0,1,.27.21l.09.2Z"/><path class="cls-4" d="M7.59,11.18s.1.2.07.26a.79.79,0,0,1,.14-.11,1.27,1.27,0,0,1,0,.51.51.51,0,0,1-.26.28l-.22-.43a.51.51,0,0,1,0-.28.91.91,0,0,1,.23-.23Z"/><path class="cls-4" d="M6.35,10.66a1,1,0,0,1,.4.05.41.41,0,0,1,.2.19l.08.21a.72.72,0,0,1-.4,0,.77.77,0,0,1-.31-.28s.12,0,.17,0-.14-.16-.14-.16Z"/><path class="cls-4" d="M7,10.27a.48.48,0,0,1,.09.25.51.51,0,0,1,.14-.15,1.3,1.3,0,0,1,.09.48.54.54,0,0,1-.19.32l-.21-.4a.61.61,0,0,1,0-.28A.4.4,0,0,1,7,10.27Z"/><path class="cls-4" d="M6.29,9.52a.69.69,0,0,0,0,.34c.06.11.1.13.1.13a.69.69,0,0,0-.28-.08.69.69,0,0,0,.2.34.55.55,0,0,0,.35.09A.68.68,0,0,0,6.82,10a.89.89,0,0,0-.17-.42.61.61,0,0,0-.07.23c0-.1-.29-.24-.29-.24Z"/><path class="cls-4" d="M8,13.12v.08c.13,0,.15,0,.18,0a.1.1,0,0,0,.13,0,.11.11,0,0,0,.05-.14.1.1,0,0,0-.12,0s-.05,0-.07,0a.66.66,0,0,1-.17,0Z"/><path class="cls-4" d="M8,13.06l.06,0c-.07.11-.09.11-.07.16a.11.11,0,0,1,0,.12.1.1,0,0,1-.14,0,.1.1,0,0,1,0-.13s.05,0,.08,0A.79.79,0,0,0,8,13.06Z"/><path class="cls-4" d="M7.52,12.14v.08c.12,0,.14,0,.18,0a.1.1,0,0,0,.12,0,.11.11,0,0,0,.06-.14.1.1,0,0,0-.12-.06l-.08,0a.38.38,0,0,1-.17,0Z"/><path class="cls-4" d="M7.55,12.17l0,.06c-.08.09-.1.1-.09.15a.13.13,0,0,1-.07.11.11.11,0,0,1-.14-.05.1.1,0,0,1,0-.12s0,0,.08,0a.52.52,0,0,0,.13-.12Z"/><path class="cls-4" d="M7.09,11.23v.08c.12,0,.14,0,.18,0a.11.11,0,0,0,.17-.12.1.1,0,0,0-.12-.05l-.07,0a.62.62,0,0,1-.17,0Z"/><path class="cls-4" d="M7.12,11.21l.06.06c-.08.1-.11.1-.1.15a.11.11,0,0,1-.06.12.11.11,0,0,1-.14,0,.11.11,0,0,1,0-.13s0,0,.08,0,.12-.12.12-.12Z"/><path class="cls-4" d="M6.63,10.27v.07c.12,0,.14,0,.18,0a.1.1,0,0,0,.12,0,.1.1,0,0,0,0-.14.1.1,0,0,0-.12,0s0,0-.07,0a.62.62,0,0,1-.17,0Z"/><path class="cls-4" d="M6.67,10.25l0,.06c-.08.09-.11.1-.1.15a.1.1,0,0,1-.06.11.11.11,0,0,1-.14-.05.09.09,0,0,1,0-.12s0,0,.08,0a.52.52,0,0,0,.13-.12Z"/><polygon class="cls-5" points="8.4 14.03 8.62 14.15 8.56 14.39 8.35 14.28 8.4 14.03"/><path class="cls-5" d="M7.44,11.91c-.05,0-.11-.18-.16-.29s-.16-.28-.13-.29.07.07.13.19.2.38.16.39Z"/><path class="cls-5" d="M7,10.86s-.1-.11-.15-.22-.1-.19-.07-.21.08.09.12.18.14.23.1.25Z"/><path class="cls-5" d="M8.06,13.25a2.42,2.42,0,0,1-.32-.6,1.41,1.41,0,0,1-.19-.52,2.61,2.61,0,0,1,.26.53,2.84,2.84,0,0,1,.25.59Z"/><path class="cls-8" d="M6.35,9.65a.45.45,0,0,0,.05.24.33.33,0,0,0,.16.13.57.57,0,0,0,0-.25A.3.3,0,0,0,6.35,9.65Z"/><path class="cls-8" d="M6.24,10a.5.5,0,0,1,.22.07.49.49,0,0,1,.11.19.26.26,0,0,1-.17,0A.79.79,0,0,1,6.24,10Z"/><path class="cls-8" d="M6.67,9.69a.44.44,0,0,0,0,.21.62.62,0,0,0,.07.24.58.58,0,0,0,0-.25.31.31,0,0,0-.08-.2Z"/><path class="cls-8" d="M6.44,10.7a.56.56,0,0,0,.17.14.83.83,0,0,0,.26.06.79.79,0,0,0-.18-.16.6.6,0,0,0-.25,0Z"/><path class="cls-8" d="M6.47,10.92a.34.34,0,0,0,.14.13.94.94,0,0,0,.28,0A.49.49,0,0,0,6.73,11a.83.83,0,0,0-.26,0Z"/><path class="cls-8" d="M7,10.4a.44.44,0,0,0,0,.19A.66.66,0,0,0,7,10.8a.61.61,0,0,0,0-.23A.28.28,0,0,0,7,10.4Z"/><path class="cls-8" d="M7.19,10.53a.55.55,0,0,0-.1.25.47.47,0,0,0,0,.26.44.44,0,0,0,.12-.24.46.46,0,0,0-.07-.27Z"/><path class="cls-8" d="M6.93,11.71a.44.44,0,0,0,.06.1.43.43,0,0,0,.1.1.27.27,0,0,1,.14,0,.55.55,0,0,1,.19.09.89.89,0,0,0-.23-.24.45.45,0,0,0-.26,0Z"/><path class="cls-8" d="M6.92,12a.72.72,0,0,1,.27,0,.57.57,0,0,1,.24.11.73.73,0,0,1-.29,0,.43.43,0,0,1-.22-.1Z"/><path class="cls-8" d="M7.55,11.32a.57.57,0,0,0-.14.26.34.34,0,0,0,.1.23.43.43,0,0,1,0-.13.47.47,0,0,1,.06-.1.25.25,0,0,0,0-.11.59.59,0,0,0,0-.15Z"/><path class="cls-8" d="M7.74,11.48a.67.67,0,0,0-.16.26.55.55,0,0,0,0,.28.45.45,0,0,0,.14-.23.85.85,0,0,0,0-.31Z"/><path class="cls-8" d="M8.05,12.29a1.14,1.14,0,0,1,.07.21.38.38,0,0,1,0,.13L8,12.72a.27.27,0,0,0,0,.12.52.52,0,0,1-.1-.29.58.58,0,0,1,.15-.26Z"/><path class="cls-8" d="M8.29,12.56a.83.83,0,0,0-.21.2.24.24,0,0,0,0,.2.23.23,0,0,0,.16-.11.79.79,0,0,0,.07-.29Z"/><path class="cls-8" d="M7.31,13a2,2,0,0,1,.35,0,.31.31,0,0,1,.18.1.51.51,0,0,1-.28,0A.58.58,0,0,1,7.31,13Z"/><path class="cls-8" d="M7.28,12.72a.53.53,0,0,0,.22.2.67.67,0,0,0,.37,0,.76.76,0,0,0-.26-.19.87.87,0,0,0-.33,0Z"/><path class="cls-4" d="M14.62,9.77l0,.06a.15.15,0,0,0-.07.06.13.13,0,0,0,0,.1,1.2,1.2,0,0,0-.27,0s0,.18,0,.32-.1.18-.11.22a.3.3,0,0,0,0,.09s0,0-.05,0,0,.08,0,.12l-.35.7s-.05,0-.07.07a.13.13,0,0,0,0,.08.16.16,0,0,0-.09.05.28.28,0,0,0,0,.12.07.07,0,0,0-.06,0c0,.05,0,.07,0,.09-.14.26-.3.57-.39.76s-.16.09-.23.23a.21.21,0,0,0,0,.24s-.11,0-.14.06a.15.15,0,0,0,.07.18.14.14,0,0,0,.19-.05c0-.05,0-.14,0-.14a.21.21,0,0,0,.21-.12c.07-.14,0-.25,0-.32l.39-.77s0,0,.07,0a.1.1,0,0,0,0-.08.3.3,0,0,0,.09-.07.14.14,0,0,0,0-.11.11.11,0,0,0,.07,0s0-.07,0-.1l.35-.69s.08,0,.1-.08a.35.35,0,0,0,0-.06l.09,0s0-.08.11-.22.26-.15.26-.19a1.27,1.27,0,0,0-.16-.23s.06,0,.08,0a.1.1,0,0,0,0-.09h.07V9.59Zm-2.14,4.28a.09.09,0,0,0,0,.07.31.31,0,0,0-.11,0,2.41,2.41,0,0,0,0,.38,2.06,2.06,0,0,0,.31-.23l-.07-.07a.1.1,0,0,0,.05,0s0-.08-.06-.12h-.06s-.06,0-.06,0Z"/><path class="cls-5" d="M14.68,9.79l.14.07V9.68Z"/><path class="cls-5" d="M14.62,9.89a.08.08,0,0,0,0,.11.08.08,0,0,0,.11,0,.09.09,0,0,0,0-.11h-.05a.09.09,0,0,0-.06,0Z"/><path class="cls-5" d="M14.36,10s0,.14,0,.25a.36.36,0,0,1-.06.18.38.38,0,0,1-.08.07l0,.05.09-.15a2.82,2.82,0,0,0,.08-.36l.14,0h-.23Z"/><path class="cls-5" d="M14.38,10.64a1.73,1.73,0,0,1,.08-.16,1,1,0,0,1,.23-.27.77.77,0,0,0-.06-.15.56.56,0,0,0-.15,0,1.4,1.4,0,0,1-.09.34,1.21,1.21,0,0,1-.09.16Z"/><path class="cls-5" d="M14.73,10.22s-.18.15-.24.27a.91.91,0,0,0-.08.16h.07a.59.59,0,0,1,0-.11.44.44,0,0,1,.11-.15l.21-.14a1.56,1.56,0,0,0-.13-.19l.05.15Z"/><path class="cls-5" d="M14.2,11c.11-.21.14-.22.15-.25a.06.06,0,0,0,0-.09h-.05a.05.05,0,0,0,0,0,.83.83,0,0,1-.11.28l-.25.48s0,0,0,.07.07,0,.07,0Z"/><path class="cls-5" d="M13.77,11.56s0,.07.05.09.09,0,.1,0a.08.08,0,0,0-.05-.09h-.06S13.77,11.55,13.77,11.56Z"/><path class="cls-5" d="M13.68,11.7s0,.08.06.11.1,0,.12,0,0-.08-.06-.11h-.06a.06.06,0,0,0-.06,0Z"/><path class="cls-5" d="M13.62,11.85s0,.06.05.09.09,0,.1,0,0-.07,0-.09h-.06l0,0Z"/><path class="cls-5" d="M13.58,12s-.27.53-.36.72-.16.1-.21.19a.16.16,0,0,0,.05.23.15.15,0,0,0,.21-.09c.05-.1,0-.23,0-.29l.37-.72s0,0,0-.07h0S13.58,12,13.58,12Z"/><path class="cls-5" d="M12.9,13.24a.08.08,0,0,0,0,.11.09.09,0,0,0,.13,0,.1.1,0,0,0-.06-.12h0a.07.07,0,0,0-.07,0Z"/><path class="cls-5" d="M12.54,14.05l0,0s0,0,.05.07.08,0,.09,0,0-.06-.05-.08Z"/><path class="cls-5" d="M12.41,14.15v.27l.21-.16a.24.24,0,0,0-.09-.08.3.3,0,0,0-.12,0Z"/><path class="cls-5" d="M12.54,8.28c0-.14.19-.28.19-.28H8.1s.19.14.19.28v3.45a.35.35,0,0,0,.07.21,1,1,0,0,0,.24.21,10.31,10.31,0,0,0,1.2.58,1.4,1.4,0,0,1,.62.41,1.34,1.34,0,0,1,.62-.41,9.42,9.42,0,0,0,1.19-.58.86.86,0,0,0,.24-.21.3.3,0,0,0,.07-.21Z"/><path class="cls-7" d="M8.4,10.23v-2a.33.33,0,0,0-.05-.18h4.14a.3.3,0,0,0-.06.18v2l-2,.61Z"/><path class="cls-9" d="M12.44,10.23l-1.25,0H9.65l-1.25,0v1.5c0,.07.08.25.53.48a7.65,7.65,0,0,1,1.49.75,7.34,7.34,0,0,1,1.49-.75c.45-.23.52-.41.52-.48Z"/><path class="cls-4" d="M11.16,10.15a1,1,0,0,0,.72-1c0-.6-.73-.9-.75-1-.07.25.25.59.25,1s-.39.55-.39.55-.13.06-.17.06-.11-.1-.18-.1-.13.11-.22.11-.15-.11-.22-.11-.11.09-.19.1-.07-.06-.16-.06-.39,0-.39-.55.31-.75.24-1c0,.14-.74.44-.74,1a1,1,0,0,0,.72,1l-.2.38a.84.84,0,0,1,.45.15c.19.16.17.51.17.76a.72.72,0,0,1-.12.49c-.14.11-.23.12-.23.26s.09.13.23.21.17.22.44.22.26-.13.44-.22.23-.1.23-.21-.09-.15-.23-.26a.72.72,0,0,1-.13-.49c0-.25,0-.6.18-.76a.82.82,0,0,1,.45-.15Z"/><path class="cls-4" d="M10.42,8.21l-.13.36L10,8.41l.16.34-.35.12.35.13L10,9.34l.34-.16.13.35.12-.35.34.16L10.72,9l.36-.13-.36-.12.16-.34-.34.16Z"/><path class="cls-4" d="M9.65,10.21A1.34,1.34,0,0,1,9,9.88a1.71,1.71,0,0,1-.64.35A4.86,4.86,0,0,1,9,10.6a2.06,2.06,0,0,1,.61-.39Z"/><path class="cls-4" d="M11.19,10.21a2.06,2.06,0,0,1,.61.39,4.25,4.25,0,0,1,.64-.37,1.71,1.71,0,0,1-.64-.35,1.34,1.34,0,0,1-.61.33Z"/><path class="cls-4" d="M9.83,10.68l-.17.18.17.17.18-.17Z"/><path class="cls-4" d="M11,10.68l-.17.18L11,11l.18-.17Z"/><path class="cls-4" d="M9.79,11.69a2.3,2.3,0,0,1,0,.34.44.44,0,0,0,.29-.32c0-.12,0-.55-.07-.62L9.67,11a1.77,1.77,0,0,1,.12.66Z"/><path class="cls-4" d="M10.85,11.09c-.12.07-.1.5-.07.62a.44.44,0,0,0,.29.32,2.3,2.3,0,0,1,0-.34,2.09,2.09,0,0,1,.11-.66Z"/><path class="cls-4" d="M9,11.1a.21.21,0,0,0-.15.25.08.08,0,0,0,0,.05H8.84a.2.2,0,0,0-.2.19.21.21,0,0,0,.19.22h.05a.05.05,0,0,0,0,0,.2.2,0,0,0,.11.27A.21.21,0,0,0,9.24,12a.43.43,0,0,0,0-.05l0,0a.21.21,0,0,0,.29,0,.21.21,0,0,0,0-.29l-.05,0,.05,0a.19.19,0,0,0,.06-.28.2.2,0,0,0-.18-.1.19.19,0,0,0-.1,0l0,0v-.05a.2.2,0,0,0-.21-.15Z"/><path class="cls-4" d="M11.22,11.7a.51.51,0,0,0,.4.43.4.4,0,0,1-.07-.19.41.41,0,0,1,.43-.45l.12,0a.55.55,0,0,0-.46-.26A.4.4,0,0,0,11.22,11.7Z"/><path class="cls-3" d="M9.36,9.16c0,.39.21.63.49.63.05,0,.11.07.16.07s.14-.09.19-.09.11.1.22.1.15-.1.22-.1.1.09.18.09.11-.07.17-.07c.28,0,.49-.24.49-.63s-.27-.72-.24-.78.53.38.53.82a1,1,0,0,1-.73.9l.16.37a.87.87,0,0,0-.36.14c-.19.15-.19.55-.19.83s0,.45.13.54.21.11.21.2-.09.12-.22.17-.15.17-.35.17-.22-.11-.36-.17-.22-.09-.22-.17.1-.11.22-.2.13-.22.13-.54,0-.68-.19-.83a.89.89,0,0,0-.37-.14l.17-.37a1,1,0,0,1-.73-.9c0-.44.53-.82.53-.82s-.24.45-.24.78Zm.78,3c-.14,0-.23,0-.23.07s.09.07.23.07a.07.07,0,1,0,0-.14Zm.55,0a.07.07,0,1,0,0,.14c.15,0,.24,0,.24-.07s-.09-.07-.24-.07Z"/><path class="cls-3" d="M10.42,8.45l.08.23.22-.1-.11.21.23.08L10.61,9l.11.22-.22-.1-.08.22-.08-.22-.22.1.1-.22L10,8.87l.22-.08-.1-.21.22.1.08-.23Z"/><path class="cls-3" d="M9.41,10.22,9,10.5H9l-.42-.26A1.19,1.19,0,0,0,9,10a.86.86,0,0,0,.38.23Z"/><path class="cls-3" d="M12.22,10.24a2.75,2.75,0,0,0-.41.26h0a1.55,1.55,0,0,0-.38-.28A.81.81,0,0,0,11.8,10,1.28,1.28,0,0,0,12.22,10.24Z"/><path class="cls-3" d="M9.83,10.77l.09.09L9.83,11l-.09-.09Z"/><path class="cls-3" d="M11,10.77l.1.09L11,11l-.09-.09Z"/><path class="cls-3" d="M10,11.16a.85.85,0,0,1,0,.43.31.31,0,0,1-.15.27,2.54,2.54,0,0,0-.08-.74Z"/><path class="cls-3" d="M11.05,11.12a3.23,3.23,0,0,0-.07.74.31.31,0,0,1-.15-.27.85.85,0,0,1,.05-.43l.17,0Z"/><path id="leaf" class="cls-3" d="M9.25,11.3a.13.13,0,0,1,0,.06s0,0,0,0l-.08,0a.25.25,0,0,0-.18.08l0,0s0,0,0,0a.16.16,0,0,1,.12-.19h0a.16.16,0,0,1,.16.12Z"/><path id="leaf-2" data-name="leaf" class="cls-3" d="M9.49,11.6l-.05,0h0a.19.19,0,0,0,0-.08.2.2,0,0,0-.13-.14l0,0,0,0a.17.17,0,0,1,.22.05l0,0a.16.16,0,0,1-.07.19Z"/><path id="leaf-3" data-name="leaf" class="cls-3" d="M9.28,11.92l0,0,0,0a.15.15,0,0,0,.07,0,.23.23,0,0,0,.1-.17h0l.05,0a.17.17,0,0,1,0,.22l0,0a.15.15,0,0,1-.2,0Z"/><path id="leaf-4" data-name="leaf" class="cls-3" d="M8.91,11.82l0,0,0,0,.06.06a.26.26,0,0,0,.19,0v0a.09.09,0,0,1,0,0A.17.17,0,0,1,9,12l0,0a.16.16,0,0,1-.06-.19Z"/><path id="leaf-5" data-name="leaf" class="cls-3" d="M8.9,11.44H9l0,0a.59.59,0,0,0,0,.08.19.19,0,0,0,0,.18l-.05,0H8.87a.16.16,0,0,1-.14-.17v0a.16.16,0,0,1,.17-.11Z"/><circle class="cls-3" cx="9.17" cy="11.62" r="0.15"/><path class="cls-3" d="M11.87,11.41a.5.5,0,0,0-.41.54.41.41,0,0,1-.15-.26.31.31,0,0,1,.33-.35.42.42,0,0,1,.23.07Z"/></svg>