<svg id="Layer_1" data-name="Layer 1" xmlns="http://www.w3.org/2000/svg" viewBox="0 0 21 21"><defs><style>.cls-1{fill:#d80316;}.cls-2{fill:#edeeef;}.cls-3{fill:#076622;}.cls-4{fill:#f8c40a;}.cls-5{fill:none;stroke:#f8c40a;stroke-miterlimit:3.43;stroke-width:0.34px;}</style></defs><path class="cls-1" d="M21,5v8.5H0V5A2,2,0,0,1,2,3H19A2,2,0,0,1,21,5Z"/><rect class="cls-2" y="7.5" width="21" height="6"/><path class="cls-3" d="M21,13.5V16a2,2,0,0,1-2,2H2a2,2,0,0,1-2-2V13.5Z"/><path class="cls-4" d="M10.7,9.44a.63.63,0,0,0-.8.4.68.68,0,0,0,0,.4.28.28,0,0,1,.37-.1.26.26,0,0,1,.13.22v1.07h.2V10.36a.27.27,0,0,1,.27-.26.3.3,0,0,1,.23.14A.63.63,0,0,0,10.7,9.44Zm-.2.72a.41.41,0,0,0-.45-.2.44.44,0,0,1,.39-.39A.45.45,0,0,1,11,10,.41.41,0,0,0,10.5,10.16Z"/><path id="w" class="cls-4" d="M10.4,11a.81.81,0,0,1-.88.74A.79.79,0,0,1,9,11.52a.84.84,0,0,1-1.1.47.81.81,0,0,1-.18-.1c.08.78,1.25.62,1.33-.13.37.64,1.17.46,1.41-.33Z"/><path id="w-2" data-name="w" class="cls-4" d="M10.6,11a.81.81,0,0,0,.88.74.79.79,0,0,0,.48-.22.84.84,0,0,0,1.1.47.81.81,0,0,0,.18-.1c-.08.78-1.25.62-1.33-.13-.37.64-1.17.46-1.41-.33Z"/><path id="r" class="cls-4" d="M9.62,12.38a.44.44,0,0,1-.77.13.63.63,0,0,1,.24-.1.36.36,0,0,1,.09-.31.52.52,0,0,1,.19.26.38.38,0,0,1,.25,0Z"/><path id="r-2" data-name="r" class="cls-4" d="M10.89,12.34a.43.43,0,0,1-.78,0,.7.7,0,0,1,.25-.06A.38.38,0,0,1,10.5,12a.5.5,0,0,1,.15.29.38.38,0,0,1,.24.06Z"/><path id="r-3" data-name="r" class="cls-4" d="M12.15,12.51a.44.44,0,0,1-.77-.13.69.69,0,0,1,.26,0,.4.4,0,0,1,.18-.26.49.49,0,0,1,.1.3.45.45,0,0,1,.23.11Z"/><path class="cls-5" d="M8.43,13.17a7.12,7.12,0,0,1,4.14,0"/><polygon class="cls-4" points="13.49 10.53 13.61 10.91 14 10.91 13.68 11.14 13.8 11.52 13.49 11.28 13.17 11.52 13.29 11.14 12.97 10.91 13.36 10.91 13.49 10.53"/><polygon class="cls-4" points="13.09 9.04 13.21 9.41 13.6 9.41 13.28 9.65 13.4 10.02 13.09 9.79 12.77 10.02 12.89 9.65 12.57 9.41 12.96 9.41 13.09 9.04"/><polygon class="cls-4" points="11.99 7.95 12.12 8.32 12.51 8.32 12.19 8.55 12.31 8.93 11.99 8.7 11.67 8.93 11.8 8.55 11.48 8.32 11.87 8.32 11.99 7.95"/><polygon class="cls-4" points="10.5 7.55 10.62 7.92 11.02 7.92 10.7 8.15 10.82 8.53 10.5 8.3 10.18 8.53 10.3 8.15 9.98 7.92 10.38 7.92 10.5 7.55"/><polygon class="cls-4" points="9.01 7.95 9.13 8.32 9.52 8.32 9.2 8.55 9.33 8.93 9.01 8.7 8.69 8.93 8.81 8.55 8.49 8.32 8.88 8.32 9.01 7.95"/><polygon class="cls-4" points="7.91 9.04 8.04 9.41 8.43 9.41 8.11 9.65 8.23 10.02 7.91 9.79 7.59 10.02 7.72 9.65 7.4 9.41 7.79 9.41 7.91 9.04"/><polygon class="cls-4" points="7.51 10.53 7.64 10.91 8.03 10.91 7.71 11.14 7.83 11.52 7.51 11.28 7.2 11.52 7.32 11.14 7 10.91 7.39 10.91 7.51 10.53"/></svg>