<svg id="Layer_1" data-name="Layer 1" xmlns="http://www.w3.org/2000/svg" viewBox="0 0 21 21"><defs><style>.cls-1{fill:#03843e;}.cls-2{fill:#d32830;}.cls-3{fill:#f6f6f5;}.cls-4{fill:#f8b319;}</style></defs><path class="cls-1" d="M19,3H2A2,2,0,0,0,0,5V16a2,2,0,0,0,2,2H19a2,2,0,0,0,2-2V5A2,2,0,0,0,19,3Z"/><rect class="cls-2" x="2.59" y="3.06" width="3.94" height="14.94"/><polygon class="cls-3" points="6.13 4.76 5.34 5.42 3.77 5.42 2.98 4.76 2.98 4.11 3.77 3.45 5.34 3.45 6.13 4.11 6.13 4.76"/><polygon class="cls-1" points="6.13 10.28 5.34 10.93 3.77 10.93 2.98 10.28 2.98 9.62 3.77 8.96 5.34 8.96 6.13 9.62 6.13 10.28"/><polygon class="cls-1" points="6.13 7.52 5.34 8.18 3.77 8.18 2.98 7.52 2.98 6.86 3.77 6.21 5.34 6.21 6.13 6.86 6.13 7.52"/><polygon class="cls-1" points="6.13 13.03 5.34 13.69 3.77 13.69 2.98 13.03 2.98 12.38 3.77 11.72 5.34 11.72 6.13 12.38 6.13 13.03"/><polygon class="cls-4" points="2.59 5.03 3.38 5.81 2.59 6.6 2.59 5.03"/><polygon class="cls-4" points="6.53 6.6 5.74 5.81 6.53 5.03 6.53 6.6"/><polygon class="cls-4" points="2.59 7.78 3.38 8.57 2.59 9.36 2.59 7.78"/><polygon class="cls-4" points="6.53 9.36 5.74 8.57 6.53 7.78 6.53 9.36"/><polygon class="cls-4" points="2.59 10.54 3.38 11.32 2.59 12.11 2.59 10.54"/><polygon class="cls-4" points="6.53 12.11 5.74 11.32 6.53 10.54 6.53 12.11"/><polygon class="cls-4" points="2.59 13.29 3.38 14.08 2.59 14.87 2.59 13.29"/><polygon class="cls-4" points="6.53 14.87 5.74 14.08 6.53 13.29 6.53 14.87"/><polygon class="cls-4" points="2.59 3.06 3.38 3.06 2.59 3.85 2.59 3.06"/><polygon class="cls-4" points="6.53 3.85 5.74 3.06 6.53 3.06 6.53 3.85"/><rect class="cls-4" x="4.36" y="6.21" width="0.39" height="1.97"/><rect class="cls-2" x="3.77" y="6.99" width="1.57" height="0.39"/><polygon class="cls-4" points="5.74 6.54 5.34 6.21 5.34 8.18 5.74 7.85 5.74 6.54"/><polygon class="cls-4" points="3.38 7.85 3.77 8.18 3.77 6.21 3.38 6.54 3.38 7.85"/><polygon class="cls-4" points="4.56 3.45 3.77 3.45 2.98 4.11 2.98 4.44 4.56 4.44 4.56 3.45"/><polygon class="cls-4" points="4.56 5.42 5.34 5.42 6.13 4.76 6.13 4.44 4.56 4.44 4.56 5.42"/><polygon class="cls-2" points="4.56 5.03 3.77 4.44 4.56 3.85 5.34 4.44 4.56 5.03"/><polygon class="cls-1" points="4.56 5.03 5.34 4.44 5.34 4.44 4.56 4.44 4.56 5.03"/><polygon class="cls-1" points="4.56 4.44 4.56 3.85 3.77 4.44 4.56 4.44"/><rect class="cls-2" x="3.77" y="9.36" width="1.57" height="1.18"/><rect class="cls-4" x="5.35" y="9.75" width="0.39" height="0.39"/><rect class="cls-3" x="4.36" y="9.75" width="0.39" height="0.39"/><rect class="cls-2" x="4.36" y="12.11" width="0.39" height="0.39"/><rect class="cls-4" x="4.95" y="12.51" width="0.39" height="0.39"/><rect class="cls-4" x="3.77" y="12.51" width="0.39" height="0.39"/><rect class="cls-2" x="4.36" y="12.9" width="0.39" height="0.39"/><rect class="cls-4" x="3.38" y="9.75" width="0.39" height="0.39"/><polygon class="cls-3" points="6.13 15.79 5.34 16.44 3.77 16.44 2.98 15.79 2.98 15.13 3.77 14.47 5.34 14.47 6.13 15.13 6.13 15.79"/><polygon class="cls-4" points="4.56 14.47 3.77 14.47 2.98 15.13 2.98 15.46 4.56 15.46 4.56 14.47"/><polygon class="cls-4" points="4.56 16.44 5.34 16.44 6.13 15.79 6.13 15.46 4.56 15.46 4.56 16.44"/><polygon class="cls-2" points="5.34 15.66 4.56 16.05 3.77 15.66 3.77 15.26 4.56 14.87 5.34 15.26 5.34 15.66"/><path class="cls-3" d="M12.42,4.82a0,0,0,0,0-.05.08,2.52,2.52,0,0,1,.81,1.84,2.57,2.57,0,0,1-2.57,2.58,2.36,2.36,0,0,1-.75-.12,0,0,0,0,0,0,.08,2.5,2.5,0,0,0,1.45.46,2.59,2.59,0,0,0,1.14-4.92Z"/><path class="cls-3" d="M8.88,6.5l-.1.3L9,7a0,0,0,0,1,0,.08H8.68l-.11.3a0,0,0,0,1-.08,0L8.4,7.06H8.08S8,7,8.05,7l.27-.18-.09-.31a0,0,0,0,1,.07-.05l.25.2.27-.18S8.9,6.46,8.88,6.5Z"/><path class="cls-3" d="M10.18,7.15l-.11.3.25.2a0,0,0,0,1,0,.08H10L9.86,8a0,0,0,0,1-.08,0l-.09-.31H9.37a0,0,0,0,1,0-.08l.26-.18-.09-.31a0,0,0,0,1,.07,0l.26.19.26-.18A0,0,0,0,1,10.18,7.15Z"/><path class="cls-3" d="M10.16,5.81l-.1.3.25.2s0,.08,0,.07H10l-.11.3a0,0,0,0,1-.08,0l-.09-.3-.32,0s-.06,0,0-.07l.27-.19-.09-.3a0,0,0,0,1,.07,0l.25.2.27-.18S10.18,5.77,10.16,5.81Z"/><path class="cls-3" d="M10.21,4.51l-.11.3.25.2a0,0,0,0,1,0,.08H10l-.11.3s-.07,0-.08,0l-.09-.3H9.4S9.34,5,9.38,5l.26-.18-.08-.31s0-.07.06,0l.26.2.26-.18A0,0,0,0,1,10.21,4.51Z"/><path class="cls-3" d="M11.47,5.16l-.1.3.25.2a0,0,0,0,1,0,.08h-.32l-.11.3s-.07,0-.08,0L11,5.72h-.32a0,0,0,0,1,0-.08l.26-.18-.09-.31a0,0,0,0,1,.07,0l.25.19.27-.18S11.49,5.12,11.47,5.16Z"/></svg>