<svg id="Layer_1" data-name="Layer 1" xmlns="http://www.w3.org/2000/svg" viewBox="0 0 21 21"><defs><style>.cls-1{fill:#4984c4;}.cls-2{fill:#edeeef;}.cls-3{fill:#6ca544;}.cls-4{fill:#f1f1f0;}.cls-5{fill:#d80028;}</style></defs><path class="cls-1" d="M21,5v8.5H0V5A2,2,0,0,1,2,3H19A2,2,0,0,1,21,5Z"/><rect class="cls-2" y="7.5" width="21" height="6"/><path class="cls-3" d="M21,13.5V16a2,2,0,0,1-2,2H2a2,2,0,0,1-2-2V13.5Z"/><path class="cls-4" d="M2.51,5.15A1.83,1.83,0,0,1,4,3.36a1.72,1.72,0,0,0-.39,0A1.83,1.83,0,1,0,3.56,7a1.72,1.72,0,0,0,.39,0A1.83,1.83,0,0,1,2.51,5.15Z"/><path class="cls-4" d="M5,6l.12.38h.4l-.32.23L5.35,7,5,6.74,4.71,7l.12-.38-.32-.23h.4Z"/><path class="cls-4" d="M6.31,6l.12.38h.4l-.32.23L6.63,7l-.32-.23L6,7l.13-.38-.33-.23h.4Z"/><path class="cls-4" d="M7.59,6l.12.38h.4l-.32.23L7.91,7l-.32-.23L7.26,7l.13-.38-.33-.23h.4Z"/><path class="cls-4" d="M8.86,6,9,6.36h.4l-.33.23L9.19,7l-.33-.23L8.54,7l.12-.38-.32-.23h.4Z"/><path class="cls-4" d="M10.14,6l.13.38h.4l-.33.23.13.38-.33-.23L9.82,7l.12-.38-.32-.23H10Z"/><path class="cls-4" d="M6.31,4.65,6.43,5h.4l-.32.23.12.38-.32-.23L6,5.64l.13-.38L5.78,5h.4Z"/><path class="cls-4" d="M7.59,4.65,7.71,5h.4l-.32.23.12.38-.32-.23-.33.23.13-.38L7.06,5h.4Z"/><path class="cls-4" d="M8.86,4.65,9,5h.4l-.33.23.13.38-.33-.23-.32.23.12-.38L8.34,5h.4Z"/><path class="cls-4" d="M10.14,4.65l.13.38h.4l-.33.23.13.38-.33-.23-.32.23.12-.38L9.62,5H10Z"/><path class="cls-4" d="M7.59,3.32l.12.38h.4l-.32.23.12.38-.32-.23-.33.23.13-.38L7.06,3.7h.4Z"/><path class="cls-4" d="M8.86,3.32,9,3.7h.4l-.33.23.13.38-.33-.23-.32.23.12-.38L8.34,3.7h.4Z"/><path class="cls-4" d="M10.14,3.32l.13.38h.4l-.33.23.13.38-.33-.23-.32.23.12-.38L9.62,3.7H10Z"/><rect class="cls-5" y="7.5" width="21" height="1"/><rect class="cls-5" y="12.5" width="21" height="1"/></svg>