<svg width="153" height="39" viewBox="0 0 153 39" fill="none" xmlns="http://www.w3.org/2000/svg">
<path d="M22.8786 17.9587C22.8951 16.6858 23.2341 15.4378 23.8642 14.3307C24.4943 13.2236 25.395 12.2935 26.4825 11.6268C25.7916 10.6429 24.8803 9.83322 23.8207 9.26202C22.7612 8.69083 21.5827 8.37387 20.3789 8.33631C17.8108 8.06751 15.3212 9.86867 14.0126 9.86867C12.6787 9.86867 10.6638 8.363 8.49421 8.40751C7.09083 8.45272 5.72312 8.85968 4.52435 9.58871C3.32558 10.3178 2.33663 11.344 1.65386 12.5675C-1.30377 17.6739 0.902354 25.1785 3.73552 29.306C5.15301 31.3272 6.80965 33.5849 8.97733 33.5048C11.0985 33.4171 11.8908 32.156 14.4512 32.156C16.9879 32.156 17.7312 33.5048 19.9429 33.4539C22.219 33.4171 23.6531 31.4238 25.0209 29.3835C26.0393 27.9433 26.8231 26.3516 27.343 24.6674C26.0206 24.1097 24.8921 23.1761 24.0982 21.9831C23.3043 20.7901 22.8802 19.3904 22.8786 17.9587Z" fill="white"/>
<path d="M18.7012 5.62178C19.9423 4.13611 20.5537 2.22654 20.4056 0.298584C18.5096 0.49717 16.7582 1.40082 15.5004 2.82949C14.8854 3.52743 14.4144 4.33939 14.1142 5.21897C13.8141 6.09854 13.6908 7.02848 13.7513 7.95561C14.6997 7.96535 15.6379 7.76037 16.4953 7.35611C17.3527 6.95185 18.107 6.35885 18.7012 5.62178Z" fill="white"/>
<path d="M49.6922 28.388H42.4535L40.7151 33.5065H37.6491L44.5055 14.5691H47.691L54.5473 33.5065H51.429L49.6922 28.388ZM43.2032 26.026H48.941L46.1125 17.7189H46.0333L43.2032 26.026Z" fill="white"/>
<path d="M69.3548 26.6041C69.3548 30.8946 67.0519 33.6512 63.5767 33.6512C62.6963 33.6972 61.8208 33.4949 61.0504 33.0677C60.2799 32.6405 59.6457 32.0056 59.2203 31.2356H59.1546V38.0743H56.3125V19.6999H59.0635V21.9963H59.1158C59.5607 21.23 60.2057 20.5984 60.982 20.1686C61.7583 19.7388 62.6369 19.5269 63.5244 19.5554C67.0384 19.5554 69.3548 22.3254 69.3548 26.6041ZM66.4336 26.6041C66.4336 23.8087 64.985 21.971 62.7747 21.971C60.6032 21.971 59.1426 23.8475 59.1426 26.6041C59.1426 29.386 60.6032 31.2491 62.7747 31.2491C64.985 31.2491 66.4336 29.4247 66.4336 26.6041Z" fill="white"/>
<path d="M84.5937 26.6041C84.5937 30.8946 82.2909 33.6512 78.8156 33.6512C77.9353 33.6971 77.0598 33.4949 76.2893 33.0677C75.5189 32.6405 74.8847 32.0056 74.4593 31.2356H74.3935V38.0743H71.5515V19.6999H74.3024V21.9963H74.3547C74.7996 21.23 75.4446 20.5984 76.2209 20.1686C76.9972 19.7388 77.8758 19.5269 78.7633 19.5554C82.2774 19.5554 84.5937 22.3254 84.5937 26.6041ZM81.6726 26.6041C81.6726 23.8087 80.2239 21.971 78.0136 21.971C75.8422 21.971 74.3816 23.8474 74.3816 26.6041C74.3816 29.386 75.8422 31.2491 78.0136 31.2491C80.2239 31.2491 81.6726 29.4247 81.6726 26.6041H81.6726Z" fill="white"/>
<path d="M94.6656 28.2302C94.8762 30.1081 96.7057 31.3412 99.2057 31.3412C101.601 31.3412 103.325 30.1081 103.325 28.4148C103.325 26.9449 102.285 26.0648 99.8239 25.4616L97.3628 24.8703C93.8756 24.0304 92.2567 22.4041 92.2567 19.7652C92.2567 16.4977 95.1122 14.2534 99.1668 14.2534C103.18 14.2534 105.931 16.4977 106.023 19.7652H103.154C102.983 17.8753 101.416 16.7345 99.1265 16.7345C96.837 16.7345 95.2704 17.8887 95.2704 19.5686C95.2704 20.9074 96.271 21.6953 98.7188 22.2983L100.811 22.8106C104.707 23.7295 106.326 25.2903 106.326 28.0603C106.326 31.6032 103.496 33.8222 98.995 33.8222C94.7835 33.8222 91.94 31.6553 91.7563 28.23L94.6656 28.2302Z" fill="white"/>
<path d="M112.46 16.4323V19.6997H115.093V21.944H112.46V29.5556C112.46 30.7381 112.987 31.2891 114.144 31.2891C114.457 31.2837 114.769 31.2618 115.079 31.2235V33.4544C114.559 33.5514 114.03 33.5953 113.501 33.5855C110.698 33.5855 109.604 32.5355 109.604 29.8579V21.944H107.591V19.6997H109.604V16.4323H112.46Z" fill="white"/>
<path d="M116.618 26.6039C116.618 22.2597 119.183 19.5299 123.184 19.5299C127.199 19.5299 129.752 22.2597 129.752 26.6039C129.752 30.96 127.212 33.6779 123.184 33.6779C119.158 33.6779 116.618 30.9599 116.618 26.6039ZM126.857 26.6039C126.857 23.6239 125.487 21.8651 123.184 21.8651C120.881 21.8651 119.513 23.6373 119.513 26.6039C119.513 29.5958 120.881 31.3412 123.184 31.3412C125.487 31.3412 126.857 29.5958 126.857 26.6039H126.857Z" fill="white"/>
<path d="M132.096 19.6997H134.806V22.0498H134.872C135.055 21.3158 135.487 20.6672 136.093 20.2129C136.7 19.7586 137.444 19.5264 138.202 19.5553C138.53 19.5541 138.857 19.5896 139.176 19.661V22.3119C138.763 22.1859 138.331 22.128 137.899 22.1406C137.486 22.1239 137.075 22.1965 136.693 22.3534C136.311 22.5103 135.967 22.7478 135.686 23.0496C135.404 23.3514 135.192 23.7103 135.063 24.1017C134.934 24.4931 134.891 24.9078 134.938 25.3172V33.5066H132.096L132.096 19.6997Z" fill="white"/>
<path d="M152.279 29.4513C151.897 31.9578 149.449 33.6779 146.318 33.6779C142.29 33.6779 139.79 30.9868 139.79 26.6694C139.79 22.3387 142.303 19.5299 146.198 19.5299C150.029 19.5299 152.438 22.154 152.438 26.3403V27.3113H142.659V27.4825C142.614 27.9907 142.677 28.5026 142.846 28.9842C143.014 29.4659 143.284 29.9063 143.636 30.2762C143.988 30.646 144.415 30.9369 144.889 31.1296C145.363 31.3222 145.872 31.4121 146.383 31.3933C147.055 31.4561 147.729 31.301 148.305 30.9511C148.881 30.6012 149.329 30.0752 149.581 29.4513L152.279 29.4513ZM142.672 25.3306H149.594C149.62 24.8737 149.55 24.4165 149.39 23.9876C149.23 23.5588 148.983 23.1676 148.664 22.8385C148.345 22.5095 147.961 22.2497 147.537 22.0755C147.113 21.9014 146.657 21.8165 146.198 21.8263C145.735 21.8236 145.277 21.9123 144.848 22.0872C144.42 22.2622 144.031 22.5201 143.703 22.8458C143.375 23.1716 143.115 23.5589 142.938 23.9854C142.761 24.4119 142.671 24.8691 142.672 25.3306V25.3306Z" fill="white"/>
<path d="M41.1833 4.16139H42.4034C42.6134 4.18748 42.8266 4.16989 43.0295 4.10974C43.2324 4.04959 43.4206 3.94818 43.5822 3.8119C43.7439 3.67562 43.8754 3.50743 43.9686 3.31794C44.0619 3.12844 44.1147 2.92173 44.1238 2.71086C44.1238 1.87167 43.4906 1.32958 42.4168 1.32958C42.2017 1.29959 41.9826 1.31291 41.7727 1.36874C41.5627 1.42456 41.3661 1.52177 41.1945 1.65462C41.0228 1.78747 40.8796 1.95327 40.7733 2.14223C40.667 2.33119 40.5997 2.53948 40.5754 2.7548H39.2358C39.2588 2.36394 39.3623 1.982 39.5398 1.63276C39.7173 1.28352 39.965 0.97445 40.2675 0.724802C40.5699 0.475153 40.9207 0.290266 41.2979 0.181655C41.6752 0.0730431 42.0708 0.0430324 42.4601 0.0934888C44.2567 0.0934888 45.5217 1.0965 45.5217 2.54033C45.526 3.02403 45.3637 3.49454 45.062 3.87331C44.7603 4.25208 44.3374 4.5162 43.864 4.62158V4.7288C44.4252 4.75363 44.9538 4.99902 45.3341 5.41135C45.7144 5.82368 45.9156 6.36939 45.8936 6.92918C45.8521 7.33161 45.7304 7.72173 45.5357 8.07666C45.341 8.4316 45.0772 8.74421 44.7598 8.99616C44.4424 9.24812 44.0777 9.43436 43.6872 9.54395C43.2967 9.65355 42.8882 9.68431 42.4856 9.63442C42.0821 9.68927 41.6717 9.66255 41.2789 9.55587C40.886 9.44918 40.5187 9.2647 40.1988 9.01344C39.879 8.76217 39.6131 8.44925 39.4172 8.09335C39.2212 7.73744 39.0991 7.34582 39.0581 6.94185H40.4186C40.5008 7.81232 41.3028 8.37383 42.4856 8.37383C43.6683 8.37383 44.4405 7.74313 44.4405 6.85404C44.4405 5.95229 43.7132 5.3968 42.4422 5.3968H41.1833V4.16139Z" fill="white"/>
<path d="M47.4394 7.47206C47.4394 6.23597 48.3638 5.52337 50.0006 5.42209L51.8659 5.31487V4.72215C51.8659 3.99688 51.3865 3.58734 50.4561 3.58734C49.6975 3.58734 49.1733 3.86509 49.0209 4.35058H47.7052C47.8441 3.17109 48.9582 2.41455 50.5203 2.41455C52.2468 2.41455 53.2205 3.2716 53.2205 4.72215V9.41406H51.9107V8.44902H51.8032C51.5849 8.79518 51.2785 9.07738 50.9151 9.26681C50.5517 9.45623 50.1444 9.54608 49.7348 9.5272C49.4457 9.55718 49.1535 9.52643 48.8771 9.43691C48.6007 9.3474 48.3461 9.20111 48.1298 9.00748C47.9136 8.81385 47.7404 8.57718 47.6215 8.31272C47.5025 8.04826 47.4405 7.76189 47.4394 7.47206ZM51.8659 6.88529V6.31118L50.1842 6.41841C49.2359 6.4817 48.8058 6.80338 48.8058 7.40876C48.8058 8.02679 49.3434 8.38645 50.0827 8.38645C50.2994 8.40833 50.5182 8.38652 50.7262 8.32234C50.9342 8.25815 51.1271 8.1529 51.2935 8.01284C51.4598 7.87278 51.5963 7.70078 51.6946 7.50707C51.7929 7.31337 51.8512 7.10191 51.8659 6.88529Z" fill="white"/>
<path d="M56.8271 3.68802V9.41421H55.4681V2.54724H60.0022V3.68794L56.8271 3.68802Z" fill="white"/>
<path d="M68.2384 5.97773C68.2384 8.15949 67.1318 9.52738 65.3934 9.52738C64.9667 9.55645 64.5405 9.46332 64.1651 9.25898C63.7896 9.05463 63.4805 8.74757 63.2742 8.37395H63.1667V11.6972H61.8076V2.54723H63.1159V3.68209H63.2175C63.4275 3.29541 63.7406 2.97415 64.1222 2.75378C64.5038 2.53341 64.9391 2.42252 65.38 2.43334C67.1317 2.43329 68.2384 3.79521 68.2384 5.97773ZM66.8405 5.97773C66.8405 4.5272 66.1521 3.65076 65.0006 3.65076C63.8567 3.65076 63.1413 4.5458 63.1413 5.98369C63.1413 7.41487 63.8567 8.31066 64.9947 8.31066C66.1521 8.31064 66.8405 7.43421 66.8405 5.97773Z" fill="white"/>
<path d="M70.0485 11.8737V10.7069C70.1955 10.7255 70.3437 10.734 70.4919 10.7322C70.7815 10.7536 71.0688 10.6676 71.2986 10.4907C71.5285 10.3139 71.6848 10.0586 71.7375 9.77386L71.839 9.43952L69.3465 2.54724H70.8265L72.553 8.00165H72.6605L74.3809 2.54724H75.8221L73.2549 9.69792C72.6665 11.3689 72.0153 11.905 70.6115 11.905C70.498 11.905 70.1754 11.8923 70.0485 11.8737Z" fill="white"/>
<path d="M76.8809 7.46553H78.234C78.3669 8.07095 78.9359 8.38663 79.7319 8.38663C80.6369 8.38663 81.1925 7.989 81.1925 7.37098C81.1925 6.709 80.6937 6.39328 79.7319 6.39328H78.7014V5.34038H79.714C80.5354 5.34038 80.9535 5.0254 80.9535 4.4513C80.9535 3.94718 80.5488 3.56223 79.714 3.56223C78.9538 3.56223 78.3983 3.88391 78.3101 4.426H77.0004C77.0983 3.8031 77.4375 3.2434 77.945 2.86728C78.4524 2.49116 79.0876 2.32867 79.714 2.41476C81.3508 2.41476 82.2872 3.15269 82.2872 4.31282C82.2948 4.63588 82.191 4.95177 81.9931 5.20766C81.7952 5.46356 81.5152 5.64395 81.2 5.71868V5.82591C81.5753 5.87419 81.9198 6.05819 82.1681 6.34301C82.4165 6.62782 82.5513 6.99363 82.547 7.37101C82.547 8.67641 81.4329 9.54011 79.7319 9.54011C78.228 9.54006 77.0064 8.85277 76.8809 7.46553Z" fill="white"/>
<path d="M84.5043 9.41421V2.54724H85.8514V7.27044H85.9589L89.1325 2.54726H90.4796V9.41422H89.1325V4.66574H89.0309L85.8514 9.41424L84.5043 9.41421Z" fill="white"/>
<path d="M97.9004 3.68794H95.7319V9.41413H94.3714V3.68794H92.2029V2.54724H97.9004V3.68794Z" fill="white"/>
<path d="M105.221 7.56006C105.036 8.18763 104.636 8.73038 104.09 9.0935C103.544 9.45662 102.888 9.61704 102.236 9.54673C101.782 9.55867 101.331 9.47202 100.915 9.29279C100.498 9.11355 100.125 8.84603 99.8226 8.5088C99.52 8.17156 99.2945 7.77269 99.162 7.33986C99.0294 6.90703 98.9929 6.45061 99.0549 6.00229C98.9945 5.55259 99.0317 5.09519 99.1639 4.66107C99.2962 4.22694 99.5204 3.82622 99.8215 3.48604C100.123 3.14585 100.493 2.87414 100.909 2.6893C101.324 2.50445 101.775 2.4108 102.23 2.41467C104.146 2.41467 105.303 3.72007 105.303 5.87642V6.34932H100.441V6.42526C100.419 6.67732 100.451 6.93107 100.534 7.17023C100.616 7.40938 100.748 7.62864 100.921 7.81392C101.094 7.99919 101.303 8.14638 101.536 8.24603C101.77 8.34567 102.021 8.39557 102.275 8.39251C102.6 8.43125 102.929 8.37278 103.22 8.22455C103.512 8.07631 103.752 7.845 103.912 7.56002L105.221 7.56006ZM100.441 5.34703H103.917C103.935 5.11667 103.903 4.88529 103.826 4.66772C103.748 4.45016 103.625 4.25123 103.466 4.08371C103.306 3.91619 103.113 3.78378 102.899 3.69499C102.686 3.60619 102.456 3.56298 102.224 3.56811C101.989 3.56492 101.755 3.60876 101.538 3.69704C101.32 3.78532 101.122 3.91625 100.956 4.08209C100.789 4.24792 100.658 4.44531 100.57 4.66257C100.481 4.87984 100.438 5.11257 100.441 5.34703H100.441Z" fill="white"/>
<path d="M110.983 2.54724H114.088C115.435 2.54724 116.225 3.22783 116.225 4.29337C116.227 4.63147 116.113 4.96004 115.901 5.22408C115.689 5.48813 115.393 5.67164 115.062 5.7439V5.85112C115.464 5.87646 115.841 6.05486 116.115 6.34947C116.389 6.64409 116.539 7.0324 116.534 7.43421C116.534 8.63231 115.631 9.41418 114.119 9.41418H110.983V2.54724ZM112.33 3.58749V5.36564H113.677C114.499 5.36564 114.891 5.05067 114.891 4.46985C114.891 3.93447 114.549 3.58747 113.828 3.58747L112.33 3.58749ZM112.33 6.36198V8.37398H113.942C114.745 8.37398 115.175 8.02028 115.175 7.37097C115.175 6.68368 114.688 6.362 113.771 6.362L112.33 6.36198Z" fill="white"/>
</svg>
