<svg width="177" height="42" viewBox="0 0 177 42" fill="none" xmlns="http://www.w3.org/2000/svg">
<path d="M88.9766 23.1688C87.6909 23.1718 86.435 23.5558 85.3677 24.2721C84.3004 24.9885 83.4696 26.005 82.9804 27.1933C82.4912 28.3815 82.3656 29.688 82.6193 30.9476C82.8731 32.2072 83.4949 33.3633 84.4062 34.2698C85.3174 35.1762 86.4771 35.7922 87.7387 36.0399C89.0002 36.2876 90.3069 36.1559 91.4936 35.6614C92.6802 35.1669 93.6935 34.3319 94.4053 33.2618C95.117 32.1918 95.4953 30.9349 95.4923 29.65C95.5047 28.7929 95.3445 27.942 95.0211 27.148C94.6976 26.3541 94.2176 25.6333 93.6097 25.0285C93.0017 24.4238 92.2783 23.9475 91.4823 23.628C90.6863 23.3085 89.8342 23.1523 88.9766 23.1688ZM88.9766 33.5845C88.1886 33.6396 87.4022 33.4565 86.7197 33.059C86.0372 32.6615 85.4901 32.068 85.1496 31.3556C84.8091 30.6433 84.6909 29.845 84.8103 29.0647C84.9298 28.2843 85.2814 27.5578 85.8194 26.9798C86.3574 26.4018 87.057 25.9989 87.8272 25.8235C88.5974 25.6481 89.4026 25.7083 90.1381 25.9963C90.8736 26.2843 91.5054 26.7867 91.9514 27.4383C92.3974 28.0899 92.6369 28.8606 92.6388 29.65C92.6634 30.1502 92.5875 30.6503 92.4156 31.1208C92.2437 31.5912 91.9793 32.0225 91.638 32.3892C91.2967 32.7559 90.8854 33.0506 90.4283 33.2559C89.9712 33.4612 89.4776 33.5729 88.9766 33.5845ZM74.755 23.1688C73.4693 23.1718 72.2134 23.5558 71.1461 24.2721C70.0788 24.9885 69.248 26.005 68.7588 27.1933C68.2696 28.3815 68.1439 29.688 68.3977 30.9476C68.6515 32.2072 69.2733 33.3633 70.1845 34.2698C71.0958 35.1762 72.2555 35.7922 73.517 36.0399C74.7786 36.2876 76.0853 36.1559 77.2719 35.6614C78.4586 35.1669 79.4719 34.3319 80.1836 33.2618C80.8954 32.1918 81.2737 30.9349 81.2707 29.65C81.2831 28.7929 81.1229 27.942 80.7994 27.148C80.476 26.3541 79.996 25.6333 79.3881 25.0285C78.7801 24.4238 78.0566 23.9475 77.2607 23.628C76.4647 23.3085 75.6126 23.1523 74.755 23.1688ZM74.755 33.5845C73.9669 33.6396 73.1806 33.4565 72.4981 33.059C71.8156 32.6615 71.2685 32.068 70.928 31.3556C70.5875 30.6433 70.4692 29.845 70.5887 29.0647C70.7081 28.2843 71.0597 27.5578 71.5978 26.9798C72.1358 26.4018 72.8354 25.9989 73.6056 25.8235C74.3758 25.6481 75.181 25.7083 75.9165 25.9963C76.652 26.2843 77.2838 26.7867 77.7298 27.4383C78.1757 28.0899 78.4153 28.8606 78.4172 29.65C78.4418 30.1502 78.3659 30.6503 78.194 31.1208C78.0221 31.5912 77.7577 32.0225 77.4164 32.3892C77.0751 32.7559 76.6637 33.0506 76.2067 33.2559C75.7496 33.4612 75.256 33.5729 74.755 33.5845ZM57.8477 25.1665V27.9115H64.4397C64.3363 29.2044 63.7986 30.4244 62.9138 31.3733C62.2525 32.0466 61.4572 32.5737 60.5793 32.9204C59.7014 33.2672 58.7604 33.4259 57.8172 33.3863C55.8746 33.3863 54.0116 32.6151 52.638 31.2423C51.2644 29.8695 50.4927 28.0077 50.4927 26.0663C50.4927 24.1249 51.2644 22.263 52.638 20.8903C54.0116 19.5175 55.8746 18.7463 57.8172 18.7463C59.6795 18.7186 61.4777 19.4254 62.8222 20.7135L64.7602 18.7768C63.8507 17.8778 62.7708 17.1693 61.5839 16.6927C60.3969 16.2161 59.1267 15.981 57.8477 16.0013C56.4912 15.9485 55.1379 16.17 53.869 16.6524C52.6002 17.1348 51.4418 17.8683 50.4634 18.8088C49.4849 19.7494 48.7065 20.8776 48.1749 22.126C47.6432 23.3743 47.3691 24.7171 47.3691 26.0739C47.3691 27.4307 47.6432 28.7735 48.1749 30.0218C48.7065 31.2702 49.4849 32.3985 50.4634 33.339C51.4418 34.2795 52.6002 35.013 53.869 35.4954C55.1379 35.9778 56.4912 36.1993 57.8477 36.1465C59.153 36.1986 60.4546 35.9742 61.667 35.488C62.8793 35.0017 63.9751 34.2647 64.8822 33.3253C66.4846 31.5661 67.3385 29.2523 67.2627 26.8745C67.2681 26.3022 67.2222 25.7306 67.1253 25.1665H57.8477ZM126.987 27.3015C126.589 26.1315 125.845 25.1098 124.853 24.3718C123.862 23.6338 122.669 23.2143 121.433 23.1688C120.598 23.1671 119.772 23.3366 119.006 23.6667C118.239 23.9969 117.548 24.4806 116.976 25.088C116.404 25.6955 115.963 26.4137 115.68 27.1984C115.396 27.9831 115.277 28.8175 115.329 29.65C115.316 31.0421 115.754 32.4011 116.578 33.5239C117.401 34.6468 118.566 35.4732 119.898 35.8799C121.231 36.2865 122.659 36.2515 123.969 35.7801C125.28 35.3087 126.403 34.4261 127.171 33.2643L124.958 31.7393C124.628 32.2887 124.16 32.7424 123.601 33.0554C123.041 33.3684 122.41 33.5298 121.769 33.5235C121.107 33.5508 120.453 33.3775 119.892 33.0264C119.331 32.6753 118.89 32.1628 118.625 31.5563L127.308 27.9725L126.987 27.3015ZM118.137 29.467C118.106 28.9933 118.17 28.5182 118.325 28.0695C118.48 27.6209 118.723 27.2076 119.04 26.854C119.357 26.5004 119.741 26.2135 120.171 26.0101C120.6 25.8068 121.065 25.6911 121.54 25.6698C122.032 25.6398 122.521 25.7555 122.947 26.0023C123.373 26.2492 123.717 26.6163 123.936 27.0575L118.137 29.467ZM111.087 35.75H113.941V16.6875H111.087V35.75ZM106.418 24.6175H106.311C105.885 24.1324 105.359 23.7449 104.769 23.4817C104.179 23.2185 103.539 23.0858 102.893 23.0925C101.225 23.1733 99.653 23.8923 98.5014 25.1003C97.3498 26.3084 96.7075 27.9129 96.7075 29.5814C96.7075 31.2499 97.3498 32.8544 98.5014 34.0625C99.653 35.2705 101.225 35.9895 102.893 36.0703C103.54 36.0832 104.182 35.9533 104.773 35.6897C105.364 35.426 105.889 35.0353 106.311 34.5453H106.418V35.4755C106.418 37.9613 105.09 39.288 102.954 39.288C102.24 39.2724 101.548 39.0451 100.963 38.6351C100.379 38.2251 99.9303 37.6508 99.6733 36.9853L97.2013 38.007C97.6584 39.1542 98.453 40.1358 99.4802 40.8219C100.507 41.5081 101.719 41.8666 102.954 41.85C106.296 41.85 109.058 39.8828 109.058 35.0943V23.55H106.418V24.6175ZM103.137 33.5845C102.137 33.5222 101.199 33.0814 100.513 32.3518C99.8271 31.6222 99.4453 30.6588 99.4453 29.6577C99.4453 28.6565 99.8271 27.6931 100.513 26.9635C101.199 26.2339 102.137 25.7931 103.137 25.7308C103.626 25.7519 104.105 25.8709 104.547 26.081C104.989 26.291 105.383 26.5877 105.708 26.9533C106.033 27.319 106.28 27.7462 106.436 28.2094C106.592 28.6727 106.654 29.1626 106.616 29.65C106.658 30.1391 106.6 30.6315 106.446 31.0975C106.291 31.5635 106.044 31.9934 105.719 32.3612C105.394 32.7289 104.997 33.027 104.554 33.2373C104.11 33.4475 103.628 33.5657 103.137 33.5845ZM140.355 16.6875H133.518V35.75H136.372V28.5215H140.355C141.168 28.5799 141.984 28.4702 142.753 28.1993C143.522 27.9284 144.227 27.5021 144.824 26.947C145.421 26.3918 145.897 25.7197 146.222 24.9726C146.548 24.2255 146.716 23.4194 146.716 22.6045C146.716 21.7897 146.548 20.9836 146.222 20.2365C145.897 19.4893 145.421 18.8173 144.824 18.2621C144.227 17.7069 143.522 17.2806 142.753 17.0097C141.984 16.7388 141.168 16.6291 140.355 16.6875ZM140.355 25.8375H136.372V19.341H140.416C140.844 19.341 141.269 19.4254 141.665 19.5894C142.061 19.7535 142.421 19.9938 142.725 20.2969C143.028 20.5999 143.268 20.9597 143.432 21.3556C143.597 21.7516 143.681 22.176 143.681 22.6045C143.681 23.0331 143.597 23.4575 143.432 23.8534C143.268 24.2494 143.028 24.6091 142.725 24.9122C142.421 25.2152 142.061 25.4556 141.665 25.6196C141.269 25.7836 140.844 25.868 140.416 25.868L140.355 25.8375ZM157.964 23.1078C156.925 23.0437 155.889 23.2855 154.986 23.8032C154.083 24.3209 153.352 25.0918 152.882 26.0205L155.4 27.0728C155.655 26.6144 156.036 26.2394 156.499 25.9931C156.962 25.7469 157.487 25.6399 158.009 25.685C158.372 25.6427 158.739 25.673 159.089 25.774C159.44 25.875 159.766 26.0447 160.05 26.2732C160.335 26.5018 160.57 26.7846 160.744 27.1051C160.917 27.4257 161.025 27.7776 161.061 28.1403V28.3233C160.144 27.8413 159.122 27.59 158.086 27.5913C155.37 27.5913 152.592 29.1163 152.592 31.8918C152.619 32.4817 152.765 33.0602 153.019 33.593C153.274 34.1257 153.634 34.6018 154.077 34.993C154.519 35.3842 155.036 35.6825 155.596 35.8702C156.157 36.0579 156.749 36.1311 157.338 36.0855C158.054 36.1251 158.768 35.9737 159.406 35.6467C160.044 35.3198 160.584 34.8291 160.97 34.225H161.061V35.75H163.808V28.4148C163.808 25.075 161.275 23.1383 158.025 23.1383L157.964 23.1078ZM157.613 33.554C156.682 33.554 155.385 33.0813 155.385 31.9375C155.385 30.4125 157.002 29.894 158.437 29.894C159.343 29.8717 160.239 30.0929 161.031 30.5345C160.935 31.3627 160.542 32.1281 159.925 32.6889C159.308 33.2497 158.508 33.5679 157.674 33.5845L157.613 33.554ZM173.818 23.55L170.553 31.8155H170.461L167.074 23.55H164.022L169.103 35.1095L166.204 41.5298H169.179L176.992 23.55H173.818ZM148.183 35.75H151.021V16.6875H148.183V35.75Z" fill="white"/>
<path d="M0.930536 1.49854C0.427697 2.09271 0.171126 2.85649 0.213349 3.63354V37.3665C0.161428 38.1449 0.419189 38.9122 0.930536 39.5015L1.03735 39.6235L19.9436 20.7288V20.2713L1.03735 1.39178L0.930536 1.49854Z" fill="url(#paint0_linear_4636_2202)"/>
<path d="M26.1999 27.027L19.9436 20.7288V20.2713L26.1999 13.973L26.3372 14.0645L33.8295 18.304C35.9658 19.5088 35.9658 21.4913 33.8295 22.7113L26.3677 26.9508L26.1999 27.027Z" fill="url(#paint1_linear_4636_2202)"/>
<path d="M26.383 26.9355L19.9436 20.5L0.930588 39.5015C1.36178 39.8851 1.91369 40.1058 2.49062 40.1252C3.06755 40.1447 3.63312 39.9618 4.08925 39.6082L26.383 26.9355Z" fill="url(#paint2_linear_4636_2202)"/>
<path d="M26.383 14.0646L4.08925 1.40705C3.63609 1.04854 3.07096 0.861188 2.49325 0.877924C1.91553 0.894659 1.36221 1.11442 0.930588 1.49855L19.9436 20.5L26.383 14.0646Z" fill="url(#paint3_linear_4636_2202)"/>
<path opacity="0.2" d="M26.1999 26.7982L4.08925 39.3795C3.6497 39.711 3.11402 39.8904 2.56333 39.8904C2.01264 39.8904 1.47695 39.711 1.0374 39.3795L0.930588 39.4862L1.0374 39.6082C1.47695 39.9398 2.01264 40.1191 2.56333 40.1191C3.11402 40.1191 3.6497 39.9398 4.08925 39.6082L26.383 26.9355L26.1999 26.7982Z" fill="black"/>
<path opacity="0.12" d="M0.93059 39.2879C0.440453 38.6831 0.200253 37.9138 0.259182 37.1377V37.3664C0.20726 38.1448 0.465018 38.9121 0.976366 39.5014L1.08318 39.3947L0.93059 39.2879Z" fill="black"/>
<path opacity="0.12" d="M33.8295 22.4825L26.1999 26.7983L26.3372 26.9355L33.8295 22.696C34.2718 22.5091 34.6554 22.2065 34.9401 21.82C35.2247 21.4336 35.3998 20.9776 35.447 20.5C35.3516 20.934 35.1555 21.3395 34.8746 21.6838C34.5936 22.0282 34.2356 22.3017 33.8295 22.4825Z" fill="black"/>
<path opacity="0.25" d="M4.08929 1.62057L33.8296 18.5176C34.2357 18.6983 34.5937 18.9719 34.8746 19.3162C35.1556 19.6606 35.3517 20.0661 35.4471 20.5001C35.3999 20.0225 35.2248 19.5665 34.9402 19.18C34.6555 18.7936 34.2718 18.491 33.8296 18.3041L4.08929 1.40706C1.96826 0.187064 0.21344 1.19357 0.21344 3.63357V3.86231C0.259218 1.42231 1.96826 0.415816 4.08929 1.62057Z" fill="white"/>
<path d="M49.2567 11.7618H48.1428V8.7118H49.0888C49.5145 8.24997 49.8346 7.70117 50.027 7.10342C50.2193 6.50567 50.2793 5.87327 50.2028 5.25005V0.675049H56.3065V8.69655H57.3289V11.7465H56.1997V9.82505H49.2567V11.7618ZM51.3777 5.25005C51.4458 6.47506 51.1427 7.69212 50.508 8.7423H55.0857V1.80355H51.3777V5.25005Z" fill="white" stroke="white" stroke-width="0.24" stroke-miterlimit="10"/>
<path d="M66.4996 8.63553C66.0601 9.07587 65.5381 9.42525 64.9633 9.66363C64.3886 9.90201 63.7724 10.0247 63.1501 10.0247C62.5279 10.0247 61.9117 9.90201 61.337 9.66363C60.7622 9.42525 60.2402 9.07587 59.8007 8.63553C58.9278 7.72435 58.4405 6.51154 58.4405 5.25003C58.4405 3.98852 58.9278 2.77571 59.8007 1.86453C60.2402 1.42418 60.7622 1.07481 61.337 0.836429C61.9117 0.598048 62.5279 0.475342 63.1501 0.475342C63.7724 0.475342 64.3886 0.598048 64.9633 0.836429C65.5381 1.07481 66.0601 1.42418 66.4996 1.86453C66.9404 2.30982 67.2876 2.83874 67.5208 3.42015C67.7541 4.00156 67.8686 4.62373 67.8576 5.25003C67.8757 5.87725 67.7644 6.50147 67.5308 7.08389C67.2971 7.6663 66.9461 8.19446 66.4996 8.63553ZM60.6553 7.87303C60.9768 8.20676 61.3634 8.47099 61.7913 8.64936C62.2191 8.82774 62.679 8.91645 63.1425 8.91003C63.6064 8.91922 64.0672 8.83176 64.4954 8.65322C64.9236 8.47468 65.3099 8.20898 65.6298 7.87303C66.2882 7.158 66.6537 6.22176 66.6537 5.25003C66.6537 4.2783 66.2882 3.34206 65.6298 2.62703C65.3099 2.29108 64.9236 2.02537 64.4954 1.84683C64.0672 1.6683 63.6064 1.58084 63.1425 1.59003C62.679 1.5836 62.2191 1.67232 61.7913 1.85069C61.3634 2.02906 60.9768 2.2933 60.6553 2.62703C60.0065 3.34684 59.6475 4.28127 59.6475 5.25003C59.6475 6.21878 60.0065 7.15321 60.6553 7.87303Z" fill="white" stroke="white" stroke-width="0.24" stroke-miterlimit="10"/>
<path d="M73.7784 10.0232C73.161 10.0329 72.548 9.91761 71.9763 9.68436C71.4046 9.45111 70.8861 9.10468 70.4519 8.66593C69.5714 7.74635 69.08 6.52269 69.08 5.24993C69.08 3.97718 69.5714 2.75351 70.4519 1.83393C70.8932 1.38763 71.4217 1.03682 72.0044 0.803332C72.5872 0.569841 73.2118 0.458653 73.8394 0.476681C74.4782 0.458619 75.1127 0.586614 75.6945 0.850904C76.2763 1.11519 76.79 1.5088 77.1965 2.00168L76.3877 2.79468C76.0879 2.40949 75.7 2.10182 75.2566 1.89749C74.8132 1.69316 74.3272 1.59815 73.8394 1.62043C73.3697 1.60846 72.9026 1.69296 72.4669 1.86871C72.0311 2.04446 71.6362 2.30772 71.3064 2.64218C70.6491 3.36383 70.2848 4.30458 70.2848 5.28043C70.2848 6.25628 70.6491 7.19703 71.3064 7.91868C71.6362 8.25315 72.0311 8.5164 72.4669 8.69215C72.9026 8.8679 73.3697 8.9524 73.8394 8.94043C74.3637 8.92554 74.8785 8.79636 75.3476 8.56193C75.8168 8.32749 76.2291 7.99345 76.5556 7.58318L77.3796 8.39143C76.9616 8.89207 76.4413 9.29764 75.8536 9.58093C75.2045 9.88401 74.4948 10.0353 73.7784 10.0232Z" fill="white" stroke="white" stroke-width="0.24" stroke-miterlimit="10"/>
<path d="M82.171 9.82505H80.996V1.80355H78.4324V0.675049H84.7193V1.80355H82.171V9.82505Z" fill="white" stroke="white" stroke-width="0.24" stroke-miterlimit="10"/>
<path d="M92.8066 0.675049L89.3427 8.39155C89.2587 8.70093 89.1084 8.98836 88.9022 9.23392C88.696 9.47948 88.4388 9.67729 88.1485 9.81365C87.8582 9.95001 87.5417 10.0217 87.221 10.0236C86.9002 10.0256 86.5828 9.95784 86.2909 9.82505L86.5961 8.7423C86.7828 8.84716 86.9923 8.90475 87.2064 8.91005C87.4323 8.92137 87.6561 8.86279 87.8473 8.7423C88.0327 8.58816 88.1747 8.38844 88.2593 8.1628L88.595 7.4308L85.5432 0.675049H86.9318L89.1901 5.92105L91.418 0.675049H92.8066Z" fill="white" stroke="white" stroke-width="0.24" stroke-miterlimit="10"/>
<path d="M94.1341 9.82505V0.675049H100.757V9.82505H99.5817V1.80355H95.3091V9.82505H94.1341Z" fill="white" stroke="white" stroke-width="0.24" stroke-miterlimit="10"/>
<path d="M102.847 9.82505V0.675049H104.022V4.5943H108.6V0.675049H109.79V9.82505H108.6V5.6923H104.022V9.82505H102.847Z" fill="white" stroke="white" stroke-width="0.24" stroke-miterlimit="10"/>
<path d="M119.373 8.63553C118.932 9.07634 118.409 9.42604 117.833 9.66463C117.257 9.90321 116.639 10.026 116.016 10.026C115.392 10.026 114.775 9.90321 114.199 9.66463C113.623 9.42604 113.1 9.07634 112.659 8.63553C111.786 7.72435 111.299 6.51154 111.299 5.25003C111.299 3.98852 111.786 2.77571 112.659 1.86453C113.098 1.42418 113.62 1.07481 114.195 0.836429C114.77 0.598048 115.386 0.475342 116.008 0.475342C116.631 0.475342 117.247 0.598048 117.822 0.836429C118.396 1.07481 118.918 1.42418 119.358 1.86453C120.224 2.77925 120.706 3.99072 120.706 5.25003C120.706 6.50933 120.224 7.72081 119.358 8.63553H119.373ZM113.529 7.87303C113.849 8.20898 114.235 8.47468 114.663 8.65322C115.091 8.83176 115.552 8.91922 116.016 8.91003C116.479 8.91645 116.939 8.82774 117.367 8.64936C117.795 8.47099 118.182 8.20676 118.503 7.87303C119.152 7.15321 119.511 6.21878 119.511 5.25003C119.511 4.28127 119.152 3.34684 118.503 2.62703C118.182 2.2933 117.795 2.02906 117.367 1.85069C116.939 1.67232 116.479 1.5836 116.016 1.59003C115.552 1.58084 115.091 1.6683 114.663 1.84683C114.235 2.02537 113.849 2.29108 113.529 2.62703C112.87 3.34206 112.505 4.2783 112.505 5.25003C112.505 6.22176 112.87 7.158 113.529 7.87303Z" fill="white" stroke="white" stroke-width="0.24" stroke-miterlimit="10"/>
<path d="M125.523 9.82494V0.674943H128.834C129.52 0.668057 130.184 0.918322 130.695 1.37644C130.95 1.59759 131.154 1.87203 131.291 2.18036C131.428 2.48868 131.495 2.82335 131.489 3.16069C131.493 3.57149 131.376 3.97439 131.153 4.31969C130.928 4.64712 130.616 4.90578 130.253 5.06694C130.693 5.21749 131.08 5.49305 131.367 5.85994C131.647 6.23367 131.797 6.68903 131.794 7.15619C131.802 7.50775 131.732 7.85671 131.59 8.17827C131.447 8.49982 131.236 8.78608 130.97 9.01669C130.44 9.50923 129.74 9.77712 129.017 9.76394L125.523 9.82494ZM126.697 4.59419H128.834C129.034 4.60575 129.234 4.57197 129.419 4.49538C129.604 4.4188 129.769 4.30139 129.902 4.15194C130.161 3.89854 130.309 3.55322 130.314 3.19119C130.328 2.82804 130.203 2.47321 129.963 2.19994C129.835 2.05772 129.676 1.94567 129.5 1.87184C129.323 1.79801 129.132 1.76424 128.941 1.77294H126.743L126.697 4.59419ZM126.697 8.69644H129.078C129.285 8.70337 129.49 8.66459 129.68 8.58286C129.87 8.50114 130.04 8.3785 130.177 8.22369C130.44 7.94245 130.587 7.57196 130.589 7.18669C130.579 6.80464 130.427 6.43999 130.161 6.16494C130.014 6.01058 129.836 5.88875 129.639 5.80733C129.442 5.7259 129.23 5.68668 129.017 5.69219H126.697V8.69644Z" fill="white" stroke="white" stroke-width="0.24" stroke-miterlimit="10"/>
<defs>
<linearGradient id="paint0_linear_4636_2202" x1="18.2651" y1="3.28278" x2="-7.32444" y2="28.8878" gradientUnits="userSpaceOnUse">
<stop stop-color="#00A0FF"/>
<stop offset="0.01" stop-color="#00A1FF"/>
<stop offset="0.26" stop-color="#00BEFF"/>
<stop offset="0.51" stop-color="#00D2FF"/>
<stop offset="0.76" stop-color="#00DFFF"/>
<stop offset="1" stop-color="#00E3FF"/>
</linearGradient>
<linearGradient id="paint1_linear_4636_2202" x1="36.622" y1="20.5" x2="-0.290186" y2="20.5" gradientUnits="userSpaceOnUse">
<stop stop-color="#FFE000"/>
<stop offset="0.41" stop-color="#FFBD00"/>
<stop offset="0.78" stop-color="#FFA500"/>
<stop offset="1" stop-color="#FF9C00"/>
</linearGradient>
<linearGradient id="paint2_linear_4636_2202" x1="22.8887" y1="24.0075" x2="-11.8204" y2="58.7223" gradientUnits="userSpaceOnUse">
<stop stop-color="#FF3A44"/>
<stop offset="1" stop-color="#C31162"/>
</linearGradient>
<linearGradient id="paint3_linear_4636_2202" x1="-3.86082" y1="-9.72545" x2="11.6332" y2="5.77795" gradientUnits="userSpaceOnUse">
<stop stop-color="#32A071"/>
<stop offset="0.07" stop-color="#2DA771"/>
<stop offset="0.48" stop-color="#15CF74"/>
<stop offset="0.8" stop-color="#06E775"/>
<stop offset="1" stop-color="#00F076"/>
</linearGradient>
</defs>
</svg>
