<svg width="162" height="48" viewBox="0 0 162 48" fill="none" xmlns="http://www.w3.org/2000/svg">
<path d="M150.565 0H11.4673C11.0138 0 10.5927 0 10.1392 0C9.78284 0 9.39411 0 9.03778 0C8.22794 0.0320427 7.41812 0.0640854 6.64067 0.224299C5.83083 0.35247 5.08578 0.608812 4.37313 0.961282C3.66047 1.31375 3.0126 1.79439 2.42951 2.37116C1.84643 2.94793 1.39291 3.58878 1.00419 4.29373C0.615469 5.03071 0.388718 5.76769 0.259144 6.53672C0.12957 7.33778 0.0647791 8.10681 0.0323856 8.90788C0.0323856 9.26035 0.0323935 9.64486 0 9.99733C0 10.4139 0 10.8625 0 11.279V36.721C0 37.1696 0 37.5861 0 38.0027C0 38.3551 -7.90906e-06 38.7397 0.0323856 39.0921C0.0647791 39.8932 0.0971766 40.6943 0.259144 41.4633C0.388718 42.2644 0.647863 43.0013 1.00419 43.7063C1.36052 44.4112 1.84643 45.0521 2.42951 45.6288C3.0126 46.2056 3.66047 46.6542 4.37313 47.0387C5.11818 47.4232 5.86323 47.6475 6.64067 47.7757C7.45051 47.9039 8.26034 47.968 9.03778 48C9.39411 48 9.78284 48 10.1392 48C10.5927 48 11.0138 48 11.4673 48H150.565C150.986 48 151.44 48 151.861 48C152.217 48 152.606 48 152.962 48C153.772 47.968 154.582 47.9359 155.359 47.7757C156.169 47.6475 156.914 47.3912 157.659 47.0387C158.372 46.6862 159.02 46.2056 159.603 45.6288C160.186 45.0841 160.639 44.4112 161.028 43.7063C161.385 43.0013 161.644 42.2323 161.773 41.4633C161.935 40.6622 161.968 39.8932 162 39.0921C162 38.7397 162 38.3551 162 38.0027C162 37.5861 162 37.1375 162 36.721V11.3111C162 10.8625 162 10.4459 162 10.0294C162 9.6769 162 9.29239 162 8.93992C161.968 8.13885 161.935 7.33778 161.773 6.56876C161.644 5.76769 161.385 5.03071 161.028 4.32577C160.672 3.62083 160.186 2.97997 159.603 2.4032C159.052 1.82644 158.372 1.37784 157.659 0.993324C156.914 0.640854 156.169 0.384513 155.359 0.256342C154.582 0.128171 153.772 0.0640854 152.962 0.0320427C152.606 0.0320427 152.217 0.0320427 151.861 0.0320427C151.44 0 151.019 0 150.565 0Z" fill="black"/>
<path d="M10.1717 47.0389C9.81538 47.0389 9.45906 47.0389 9.10273 47.0389C8.42247 47.0069 7.64501 46.9748 6.86757 46.8467C6.12252 46.7185 5.47466 46.4942 4.89157 46.2058C4.2761 45.8854 3.69301 45.5009 3.20711 44.9882C2.7212 44.5075 2.30009 43.9628 1.97616 43.322C1.65222 42.7132 1.45786 42.0723 1.32829 41.3674C1.16632 40.5663 1.13393 39.7652 1.13393 39.1564C1.13393 38.9001 1.10153 38.067 1.10153 38.067V10.0296C1.10153 10.0296 1.10154 9.19647 1.13393 8.97217C1.13393 8.36336 1.19871 7.53025 1.32829 6.76122C1.45786 6.02424 1.68462 5.38338 1.97616 4.77457C2.30009 4.16576 2.68881 3.58899 3.20711 3.10835C3.69301 2.62771 4.2761 2.21116 4.89157 1.89073C5.50705 1.5703 6.15491 1.37804 6.86757 1.24987C7.67741 1.1217 8.48725 1.05762 9.10273 1.05762H10.1717H151.893H152.995C153.61 1.05762 154.42 1.1217 155.23 1.24987C155.943 1.37804 156.59 1.60234 157.238 1.89073C157.854 2.21116 158.404 2.59567 158.923 3.10835C159.409 3.58899 159.83 4.13372 160.154 4.77457C160.478 5.38338 160.672 6.02424 160.802 6.72918C160.931 7.46616 160.996 8.23519 160.996 8.97217C160.996 9.2926 160.996 9.67711 160.996 10.0296C160.996 10.4782 160.996 10.8947 160.996 11.3113V36.7532C160.996 37.1698 160.996 37.6184 160.996 38.0349C160.996 38.4194 160.996 38.7719 160.996 39.1244C160.964 39.8293 160.931 40.5983 160.802 41.3353C160.672 42.0723 160.478 42.7132 160.154 43.322C159.83 43.9308 159.409 44.5075 158.923 44.9561C158.437 45.4368 157.854 45.8533 157.238 46.1738C156.623 46.4942 155.975 46.6865 155.23 46.8146C154.452 46.9428 153.675 46.9748 152.995 47.0069C152.638 47.0069 152.282 47.0069 151.926 47.0069H150.63L10.1717 47.0389Z" fill="black"/>
<path d="M60.1547 32.4584H54.4534L53.0605 36.2074H50.5662L56.1379 22.1406H58.5026L64.2039 36.2074H61.58L60.1547 32.4584ZM55.1661 30.5358H59.4096L57.8871 26.4984C57.6928 25.9537 57.466 25.3129 57.2717 24.64C57.0773 25.2488 56.8829 25.8576 56.6886 26.4664L55.1661 30.5358Z" fill="white"/>
<path d="M65.2081 28.2936C65.2081 27.5246 65.1757 26.6594 65.1433 25.7302H67.4108C67.508 26.1788 67.5404 26.5953 67.5728 27.0439C68.5122 26.0185 69.5812 25.5059 70.8121 25.5059C71.5248 25.5059 72.1727 25.6661 72.7881 26.0185C73.4036 26.371 73.8895 26.9157 74.2458 27.6848C74.6022 28.4538 74.7965 29.4151 74.7965 30.5686C74.7965 31.7862 74.5698 32.8436 74.1487 33.7088C73.7275 34.574 73.1445 35.2469 72.367 35.6634C71.622 36.112 70.7474 36.3363 69.7432 36.3363C69.0305 36.3363 68.3178 36.2081 67.6052 35.9838V40.3737L65.1757 40.566V28.2936H65.2081ZM71.5896 33.6447C72.0755 33.0039 72.3346 32.0426 72.3346 30.7609C72.3346 29.5753 72.1403 28.7422 71.7191 28.2295C71.298 27.7168 70.7797 27.4284 70.0995 27.4284C69.6136 27.4284 69.1925 27.5246 68.8037 27.7489C68.415 27.9732 68.0263 28.2615 67.67 28.646V34.2535C67.8967 34.3817 68.1883 34.4778 68.5122 34.5419C68.8361 34.606 69.1601 34.638 69.4516 34.638C70.3586 34.638 71.0713 34.3176 71.5896 33.6447Z" fill="white"/>
<path d="M76.2542 28.2936C76.2542 27.5246 76.2218 26.6594 76.1895 25.7302H78.457C78.5542 26.1788 78.5866 26.5953 78.619 27.0439C79.5584 26.0185 80.6274 25.5059 81.8583 25.5059C82.571 25.5059 83.2188 25.6661 83.8343 26.0185C84.4498 26.371 84.9357 26.9157 85.292 27.6848C85.6483 28.4538 85.8427 29.4151 85.8427 30.5686C85.8427 31.7862 85.616 32.8436 85.1948 33.7088C84.7737 34.574 84.1906 35.2469 83.4132 35.6634C82.6682 36.112 81.7935 36.3363 80.7893 36.3363C80.0767 36.3363 79.364 36.2081 78.6514 35.9838V40.3737L76.2219 40.566V28.2936H76.2542ZM82.6358 33.6447C83.1217 33.0039 83.3808 32.0426 83.3808 30.7609C83.3808 29.5753 83.1864 28.7422 82.7653 28.2295C82.3442 27.7168 81.8259 27.4284 81.1457 27.4284C80.6598 27.4284 80.2386 27.5246 79.8499 27.7489C79.4612 27.9732 79.0725 28.2615 78.7162 28.646V34.2535C78.9429 34.3817 79.2344 34.4778 79.5584 34.5419C79.8823 34.606 80.2063 34.638 80.4978 34.638C81.4048 34.638 82.1499 34.3176 82.6358 33.6447Z" fill="white"/>
<path d="M90.2806 35.5345C89.244 34.9578 88.4342 34.1567 87.8835 33.0672C87.3328 32.0098 87.0412 30.7281 87.0412 29.2862C87.0412 27.7161 87.3652 26.3703 88.013 25.2809C88.6609 24.1914 89.5355 23.3583 90.6693 22.8136C91.7707 22.2689 93.0341 21.9805 94.427 21.9805C95.2368 21.9805 96.0142 22.0766 96.7593 22.2368C97.5044 22.4291 98.1846 22.6534 98.8325 22.9738L98.217 24.8323C96.9213 24.2235 95.6903 23.9351 94.5242 23.9351C93.5523 23.9351 92.6777 24.1594 91.9327 24.5759C91.1876 24.9925 90.6045 25.6013 90.2158 26.4024C89.7947 27.2034 89.6003 28.1968 89.6003 29.3183C89.6003 30.3116 89.7623 31.2088 90.0862 31.9778C90.4102 32.7468 90.8961 33.3556 91.5763 33.8363C92.2566 34.2849 93.1312 34.5092 94.1678 34.5092C94.6537 34.5092 95.1072 34.4771 95.5931 34.381C96.079 34.2849 96.5002 34.1887 96.9213 34.0285V31.1767H93.6495V29.3183H99.286V35.2462C98.4762 35.6307 97.6339 35.919 96.7269 36.1113C95.8199 36.3036 94.9453 36.3997 94.0706 36.3997C92.5805 36.3997 91.3496 36.1113 90.2806 35.5345Z" fill="white"/>
<path d="M107.806 36.2075C107.708 35.791 107.676 35.3424 107.644 34.8297C107.255 35.2783 106.801 35.6307 106.186 35.9512C105.603 36.2716 104.923 36.3998 104.145 36.3998C103.53 36.3998 102.979 36.2716 102.493 36.0473C102.007 35.823 101.586 35.4705 101.294 34.9899C101.003 34.5092 100.841 33.9325 100.841 33.2596C100.841 32.2342 101.197 31.4331 101.942 30.8243C102.687 30.2155 103.918 29.9271 105.635 29.9271C106.283 29.9271 106.931 29.9592 107.546 30.0553V29.8631C107.546 28.9338 107.352 28.293 106.963 27.9085C106.575 27.5239 105.992 27.3317 105.247 27.3317C104.728 27.3317 104.178 27.3958 103.594 27.556C103.011 27.7162 102.493 27.8764 102.04 28.1007L101.651 26.3704C102.072 26.1781 102.655 25.9859 103.368 25.8257C104.08 25.6655 104.825 25.5693 105.603 25.5693C106.51 25.5693 107.287 25.6975 107.935 25.9859C108.583 26.2743 109.069 26.7229 109.425 27.3958C109.782 28.0687 109.976 28.9659 109.976 30.0874V34.2529C109.976 34.7015 110.008 35.3424 110.041 36.2075H107.806ZM106.38 34.2529C106.899 34.0286 107.287 33.7082 107.611 33.3557V31.4011C106.963 31.337 106.413 31.305 105.992 31.305C104.987 31.305 104.307 31.4652 103.918 31.7856C103.53 32.106 103.335 32.5226 103.335 33.0673C103.335 33.58 103.465 33.9645 103.756 34.2209C104.048 34.4772 104.404 34.6054 104.89 34.6054C105.376 34.6374 105.862 34.5093 106.38 34.2529Z" fill="white"/>
<path d="M111.887 33.7082V21.3397L114.284 21.1475V33.2917C114.284 33.7403 114.349 34.0607 114.511 34.2529C114.673 34.4452 114.9 34.5413 115.256 34.5413C115.418 34.5413 115.612 34.5093 115.904 34.4452L116.196 36.1755C115.969 36.2716 115.677 36.3357 115.353 36.3998C115.029 36.4639 114.705 36.4959 114.414 36.4959C112.729 36.3998 111.887 35.5026 111.887 33.7082Z" fill="white"/>
<path d="M117.912 33.7082V21.3397L120.309 21.1475V33.2917C120.309 33.7403 120.374 34.0607 120.536 34.2529C120.698 34.4452 120.925 34.5413 121.281 34.5413C121.443 34.5413 121.638 34.5093 121.929 34.4452L122.221 36.1755C121.994 36.2716 121.702 36.3357 121.378 36.3998C121.055 36.4639 120.731 36.4959 120.439 36.4959C118.755 36.3998 117.912 35.5026 117.912 33.7082Z" fill="white"/>
<path d="M132.133 31.2735H125.201C125.298 33.4525 126.367 34.5739 128.376 34.5739C128.861 34.5739 129.38 34.5099 129.898 34.3817C130.416 34.2535 130.902 34.0933 131.388 33.9011L131.906 35.5352C130.708 36.112 129.38 36.4004 127.922 36.4004C126.788 36.4004 125.849 36.1761 125.071 35.7595C124.294 35.343 123.711 34.7342 123.322 33.9331C122.933 33.132 122.739 32.2028 122.739 31.0813C122.739 29.9278 122.933 28.9344 123.355 28.1013C123.776 27.2682 124.326 26.6274 125.071 26.1788C125.816 25.7302 126.659 25.5059 127.63 25.5059C128.635 25.5059 129.477 25.7302 130.125 26.2108C130.805 26.6594 131.291 27.3003 131.615 28.0693C131.939 28.8383 132.101 29.7035 132.101 30.6327V31.2735H132.133ZM129.768 29.7675C129.736 28.9344 129.509 28.2936 129.121 27.877C128.732 27.4605 128.246 27.2362 127.598 27.2362C126.983 27.2362 126.464 27.4605 126.076 27.877C125.654 28.2936 125.395 28.9344 125.266 29.7355H129.768V29.7675Z" fill="white"/>
<path d="M133.947 28.3571C133.947 27.7803 133.915 26.9151 133.882 25.7295H136.15C136.182 26.0179 136.215 26.3704 136.247 26.787C136.279 27.2035 136.312 27.5239 136.312 27.7803C136.603 27.3317 136.863 26.9472 137.154 26.6267C137.413 26.3063 137.737 26.05 138.094 25.8577C138.45 25.6655 138.871 25.5693 139.324 25.5693C139.713 25.5693 140.005 25.6014 140.296 25.6975L140.005 27.7803C139.778 27.7162 139.519 27.6842 139.227 27.6842C138.644 27.6842 138.158 27.8123 137.737 28.1007C137.316 28.3891 136.863 28.8697 136.377 29.5106V36.2396H133.98V28.3571H133.947Z" fill="white"/>
<path d="M141.657 40.5012C141.3 40.4371 141.009 40.373 140.782 40.2769L141.236 38.5466C141.398 38.5786 141.592 38.6427 141.851 38.6747C142.11 38.7068 142.337 38.7388 142.564 38.7388C143.633 38.7388 144.443 38.0659 144.961 36.6881L145.123 36.3036L141.236 25.7615H143.827L145.803 31.6574C146.127 32.6507 146.321 33.4518 146.419 33.9645C146.613 33.1954 146.807 32.4585 147.066 31.6894L149.042 25.7295H151.472L147.585 36.3356C147.228 37.3289 146.807 38.1621 146.386 38.7709C145.965 39.3797 145.447 39.8283 144.896 40.1487C144.313 40.4371 143.633 40.5973 142.791 40.5973C142.402 40.5973 142.013 40.5653 141.657 40.5012Z" fill="white"/>
<path d="M51.7325 15.6687C51.1818 15.3803 50.793 14.9317 50.5015 14.387C50.21 13.8423 50.0804 13.2014 50.0804 12.4645C50.0804 11.6954 50.2424 11.0225 50.5339 10.4458C50.8255 9.86899 51.279 9.42039 51.8296 9.13201C52.4127 8.81158 53.0606 8.65137 53.838 8.65137C54.5831 8.65137 55.1986 8.81158 55.7493 9.09996C56.2676 9.38835 56.6887 9.83695 56.9802 10.3817C57.2718 10.9264 57.4013 11.5673 57.4013 12.2722C57.4013 13.0412 57.2394 13.7141 56.9478 14.2909C56.6563 14.8677 56.2028 15.3163 55.6521 15.6046C55.1014 15.9251 54.4211 16.0853 53.6761 16.0853C52.931 16.1173 52.2831 15.9571 51.7325 15.6687ZM55.0366 14.7715C55.3929 14.5472 55.6521 14.2268 55.8464 13.8102C56.0084 13.3937 56.1056 12.913 56.1056 12.4004C56.1056 11.8877 56.0408 11.407 55.8788 11.0225C55.7169 10.606 55.4901 10.2855 55.1338 10.0612C54.7774 9.8049 54.3563 9.70878 53.8056 9.70878C53.2874 9.70878 52.8662 9.83695 52.5099 10.0612C52.1536 10.3176 51.8944 10.638 51.7001 11.0546C51.5057 11.4711 51.4409 11.9197 51.4409 12.4324C51.4409 12.9451 51.5381 13.4257 51.7001 13.8423C51.862 14.2588 52.1212 14.5793 52.4775 14.8356C52.8338 15.092 53.255 15.1881 53.7733 15.1881C54.2268 15.124 54.6803 15.0279 55.0366 14.7715Z" fill="white"/>
<path d="M59.9604 9.80448H57.6929L57.79 8.74707H63.5237L63.3941 9.80448H61.2238V16.0208H59.9604V9.80448Z" fill="white"/>
<path d="M70.3263 16.0212H68.9009L66.7306 12.8169H65.856V16.0212H64.5926V8.77954H65.856V11.7595H66.5038L68.0263 9.58061C68.2531 9.26018 68.4798 9.03588 68.7066 8.87567C68.9333 8.71545 69.2249 8.65137 69.5488 8.65137C69.8403 8.65137 70.0995 8.68341 70.2939 8.77954L70.0347 9.74082C69.9051 9.67673 69.7756 9.64469 69.646 9.64469C69.484 9.64469 69.3545 9.67673 69.2573 9.74082C69.1601 9.8049 69.0305 9.93308 68.9333 10.0933L67.6052 11.9838L70.3263 16.0212Z" fill="white"/>
<path d="M71.2981 8.7793H73.2741C74.2135 8.7793 74.9262 8.97155 75.4121 9.35607C75.898 9.74058 76.1572 10.2853 76.1572 10.9902C76.1572 11.4709 76.06 11.8874 75.8332 12.2399C75.6065 12.5924 75.3149 12.8808 74.8938 13.073C74.5051 13.2653 74.0516 13.3614 73.5333 13.3614C73.2417 13.3614 72.9178 13.3294 72.5615 13.2653V16.0209H71.2981V8.7793ZM74.4727 12.0156C74.7318 11.7593 74.8614 11.4388 74.8614 10.9902C74.8614 10.5416 74.7318 10.2212 74.4403 10.029C74.1812 9.83671 73.76 9.74058 73.2417 9.74058H72.5615V12.304C72.8854 12.3681 73.1122 12.3681 73.2741 12.3681C73.7924 12.3681 74.2135 12.2399 74.4727 12.0156Z" fill="white"/>
<path d="M78.5868 15.6687C78.0361 15.3803 77.6474 14.9317 77.3559 14.387C77.0643 13.8423 76.9347 13.2014 76.9347 12.4645C76.9347 11.6954 77.0967 11.0225 77.3882 10.4458C77.6798 9.86899 78.1333 9.42039 78.684 9.13201C79.2671 8.81158 79.9149 8.65137 80.6924 8.65137C81.4374 8.65137 82.0529 8.81158 82.6036 9.09996C83.1219 9.38835 83.543 9.83695 83.8346 10.3817C84.1261 10.9264 84.2557 11.5673 84.2557 12.2722C84.2557 13.0412 84.0937 13.7141 83.8022 14.2909C83.5106 14.8677 83.0571 15.3163 82.5064 15.6046C81.9557 15.9251 81.2755 16.0853 80.5304 16.0853C79.753 16.1173 79.1051 15.9571 78.5868 15.6687ZM81.8585 14.7715C82.2149 14.5472 82.474 14.2268 82.6684 13.8102C82.8303 13.3937 82.9275 12.913 82.9275 12.4004C82.9275 11.8877 82.8628 11.407 82.7008 11.0225C82.5388 10.606 82.3121 10.2855 81.9557 10.0612C81.5994 9.8049 81.1783 9.70878 80.6276 9.70878C80.1093 9.70878 79.6882 9.83695 79.3318 10.0612C78.9755 10.3176 78.7164 10.638 78.522 11.0546C78.3276 11.4711 78.2629 11.9197 78.2629 12.4324C78.2629 12.9451 78.36 13.4257 78.522 13.8423C78.684 14.2588 78.9431 14.5793 79.2995 14.8356C79.6558 15.092 80.0769 15.1881 80.5952 15.1881C81.0811 15.124 81.5022 15.0279 81.8585 14.7715Z" fill="white"/>
<path d="M90.6696 16.0209V12.0476C90.6696 11.5349 90.702 10.9581 90.7344 10.3172L87.0415 16.0209H85.6486V8.77919H86.8148V12.9127C86.8148 13.3613 86.8147 13.8419 86.7824 14.3867L90.4104 8.77919H91.8682V16.0209H90.6696ZM87.819 8.13834C87.5598 8.01017 87.333 7.81791 87.2035 7.59361C87.0739 7.36931 86.9767 7.14501 86.9443 6.88867H87.8513C87.9485 7.4334 88.2725 7.68974 88.7908 7.68974C89.3091 7.68974 89.633 7.4334 89.7626 6.88867H90.6696C90.6372 7.14501 90.54 7.36931 90.4104 7.59361C90.2809 7.81791 90.0541 7.97812 89.795 8.13834C89.5358 8.29855 89.1795 8.36264 88.7908 8.36264C88.4344 8.36264 88.0781 8.26651 87.819 8.13834Z" fill="white"/>
<path d="M95.2046 9.80448H92.9371L93.0343 8.74707H98.7355L98.606 9.80448H96.4356V16.0208H95.1723V9.80448H95.2046Z" fill="white"/>
<path d="M99.8044 8.7793H104.113L103.983 9.80466H101.068V11.7913H103.821V12.7526H101.068V14.9635H104.145L104.048 15.9889H99.8044V8.7793Z" fill="white"/>
<path d="M112.989 12.4322C113.248 12.5924 113.442 12.7846 113.604 13.073C113.766 13.3294 113.831 13.6498 113.831 13.9702C113.831 14.3868 113.734 14.7392 113.539 15.0276C113.345 15.3481 113.021 15.5723 112.632 15.7326C112.244 15.8928 111.758 15.9889 111.207 15.9889H108.81V8.7793H111.11C111.887 8.7793 112.47 8.93951 112.859 9.22789C113.248 9.51628 113.442 9.93283 113.442 10.4455C113.442 10.8621 113.313 11.2466 113.086 11.535C112.827 11.8234 112.503 12.0156 112.114 12.1438C112.438 12.1758 112.729 12.272 112.989 12.4322ZM110.073 11.7272H110.851C111.11 11.7272 111.337 11.6631 111.531 11.567C111.725 11.4709 111.887 11.3107 111.984 11.1505C112.082 10.9902 112.146 10.798 112.146 10.5737C112.146 10.2853 112.049 10.061 111.822 9.90079C111.596 9.74058 111.304 9.67649 110.883 9.67649H110.041V11.7272H110.073ZM112.179 14.7713C112.438 14.547 112.568 14.2586 112.568 13.8741C112.568 13.4575 112.438 13.1691 112.146 12.9448C111.855 12.7205 111.466 12.6244 110.915 12.6244H110.073V15.0597H111.013C111.531 15.0917 111.92 14.9956 112.179 14.7713Z" fill="white"/>
<path fill-rule="evenodd" clip-rule="evenodd" d="M32.7496 8.81152H19.3063C12.9572 8.81152 10.6572 11.1186 10.6572 17.3669V30.6647C10.6572 36.945 12.9896 39.2201 19.3063 39.2201H32.7496C39.0987 39.2201 41.3987 36.913 41.3987 30.6647V17.3669C41.4311 11.1186 39.0987 8.81152 32.7496 8.81152Z" fill="#C8102E"/>
<path d="M16.7473 24.0322H17.5572V28.0055H16.7473V26.4034H14.9009V28.0055H14.0911V24.0322H14.9009V25.6344H16.7473V24.0322ZM21.3472 26.3073C21.3472 26.9481 21.0233 27.3006 20.4402 27.3006C19.8571 27.3006 19.5332 26.9481 19.5332 26.2752V24.0322H18.7234V26.3073C18.7234 27.4287 19.3388 28.0696 20.4402 28.0696C21.5416 28.0696 22.1895 27.4288 22.1895 26.2752V24.0322H21.3796V26.3073H21.3472ZM30.7738 26.7559L29.8667 24.0322H29.1865L28.2795 26.7559L27.4048 24.0322H26.5302L27.9231 28.0055H28.6034L29.5104 25.378L30.4174 28.0055H31.0977L32.4906 24.0322H31.6484L30.7738 26.7559ZM33.9807 26.3073H35.4708V25.5703H33.9807V24.7692H36.1511V24.0322H33.2033V28.0055H36.2483V27.2685H34.0131V26.3073H33.9807ZM37.1877 28.0055H37.9975V24.0322H37.1877V28.0055ZM23.7767 27.1724L23.4204 28.0055H22.5782L24.3274 24.0322H25.0401L26.7893 28.0055H25.9471L25.5908 27.1724H23.7767ZM24.0683 26.4675H25.2992L24.6838 25.0576L24.0683 26.4675Z" fill="white"/>
<path d="M26.0442 18.969C23.226 18.969 20.9261 16.694 20.9261 13.9062H21.6387C21.6387 16.3095 23.6147 18.2641 26.0442 18.2641C28.4737 18.2641 30.4497 16.3095 30.4497 13.9062H31.1624C31.1624 16.694 28.8625 18.969 26.0442 18.969Z" fill="white"/>
</svg>
