<svg width="40" height="40" viewBox="0 0 40 40" fill="none" xmlns="http://www.w3.org/2000/svg">
<circle cx="20" cy="20" r="20" fill="#D6F1F0"/>
<path fill-rule="evenodd" clip-rule="evenodd" d="M29.2534 15.3219C29.7625 14.74 29.7036 13.8556 29.1217 13.3464C28.5398 12.8373 27.6553 12.8962 27.1462 13.4781L18.3317 23.5518L12.3899 17.61C11.8432 17.0633 10.9568 17.0633 10.41 17.61C9.86332 18.1567 9.86332 19.0432 10.41 19.5899L17.3911 26.5709C17.4186 26.5994 17.4475 26.627 17.4779 26.6536C17.943 27.0605 18.6013 27.1046 19.1068 26.8088C19.1987 26.755 19.2856 26.69 19.3653 26.6139C19.3736 26.606 19.3818 26.598 19.3899 26.5899C19.4173 26.5625 19.4433 26.5343 19.468 26.5053L29.2534 15.3219Z" fill="#0CA1B1"/>
</svg>
