<svg width="14" height="20" viewBox="0 0 14 20" fill="none" xmlns="http://www.w3.org/2000/svg">
<path fill-rule="evenodd" clip-rule="evenodd" d="M7.64984 19.4274C7.57616 19.5299 7.47916 19.6134 7.36684 19.671C7.25453 19.7286 7.13012 19.7586 7.00391 19.7586C6.87769 19.7586 6.75329 19.7286 6.64097 19.671C6.52865 19.6134 6.43165 19.5299 6.35797 19.4274C5.23022 17.8474 0.503906 10.9752 0.503906 6.75841C0.503906 5.0345 1.18873 3.3812 2.40771 2.16221C3.6267 0.943227 5.28 0.258408 7.00391 0.258408C8.72781 0.258408 10.3811 0.943227 11.6001 2.16221C12.8191 3.3812 13.5039 5.0345 13.5039 6.75841C13.5039 10.9752 8.77784 17.8474 7.64984 19.4274ZM7.00391 2.69599C6.20042 2.69599 5.41498 2.93425 4.7469 3.38064C4.07883 3.82704 3.55813 4.46151 3.25065 5.20384C2.94316 5.94616 2.86271 6.76299 3.01947 7.55104C3.17622 8.33909 3.56313 9.06296 4.13129 9.63111C4.69944 10.1993 5.42331 10.5862 6.21135 10.7429C6.9994 10.8997 7.81623 10.8192 8.55856 10.5117C9.30088 10.2043 9.93536 9.68357 10.3818 9.01549C10.8281 8.34742 11.0664 7.56198 11.0664 6.75849C11.0664 5.68105 10.6384 4.64773 9.87653 3.88587C9.11466 3.124 8.08135 2.69599 7.00391 2.69599Z" fill="#202439"/>
</svg>
