<svg width="20" height="13" viewBox="0 0 20 13" fill="none" xmlns="http://www.w3.org/2000/svg">
<path fill-rule="evenodd" clip-rule="evenodd" d="M6.75 4C7.44036 4 8 3.44036 8 2.75C8 2.05964 7.44036 1.5 6.75 1.5C6.05964 1.5 5.5 2.05964 5.5 2.75C5.5 3.44036 6.05964 4 6.75 4ZM19.25 3.5H9.39648C9.07002 4.65425 8.00878 5.5 6.75 5.5C5.49122 5.5 4.42998 4.65425 4.10352 3.5H0.75C0.335786 3.5 0 3.16421 0 2.75C0 2.33579 0.335786 2 0.75 2H4.10352C4.42998 0.845748 5.49122 0 6.75 0C8.00878 0 9.07002 0.845748 9.39648 2H19.25C19.6642 2 20 2.33579 20 2.75C20 3.16421 19.6642 3.5 19.25 3.5ZM15.8965 10.5C15.57 11.6543 14.5088 12.5 13.25 12.5C11.9912 12.5 10.93 11.6543 10.6035 10.5H0.75C0.335786 10.5 0 10.1642 0 9.75C0 9.33579 0.335786 9 0.75 9H10.6035C10.93 7.84575 11.9912 7 13.25 7C14.5088 7 15.57 7.84575 15.8965 9H19.25C19.6642 9 20 9.33579 20 9.75C20 10.1642 19.6642 10.5 19.25 10.5H15.8965ZM12 9.75C12 10.4404 12.5596 11 13.25 11C13.9404 11 14.5 10.4404 14.5 9.75C14.5 9.05964 13.9404 8.5 13.25 8.5C12.5596 8.5 12 9.05964 12 9.75Z" fill="#ED692A"/>
</svg>
