<svg width="16" height="16" viewBox="0 0 16 16" fill="none" xmlns="http://www.w3.org/2000/svg">
<path opacity="0.5" fill-rule="evenodd" clip-rule="evenodd" d="M8 16C6.41775 16 4.87103 15.5308 3.55544 14.6518C2.23985 13.7727 1.21447 12.5233 0.608967 11.0615C0.00346629 9.59966 -0.15496 7.99113 0.153721 6.43928C0.462403 4.88743 1.22433 3.46197 2.34315 2.34315C3.46197 1.22433 4.88743 0.462403 6.43928 0.153721C7.99113 -0.15496 9.59966 0.00346653 11.0615 0.608967C12.5233 1.21447 13.7727 2.23985 14.6518 3.55544C15.5308 4.87103 16 6.41775 16 8C16 10.1217 15.1571 12.1566 13.6569 13.6569C12.1566 15.1571 10.1217 16 8 16ZM11.1654 9.48334L8.95277 7.4897L8.5013 3.1124C8.48765 2.98934 8.4291 2.87563 8.33684 2.79305C8.24459 2.71046 8.12512 2.6648 8.0013 2.6648C7.87748 2.6648 7.75802 2.71046 7.66576 2.79305C7.57351 2.87563 7.51495 2.98934 7.5013 3.1124C7.49524 3.17104 7.00364 7.9394 6.9973 7.99754C6.98057 8.16256 7.01604 8.32867 7.0987 8.47248C7.18137 8.61628 7.30708 8.73052 7.4581 8.7991L10.6444 10.2858C10.7499 10.3336 10.869 10.342 10.9801 10.3095C11.0912 10.277 11.187 10.2057 11.25 10.1086C11.3131 10.0115 11.3392 9.89503 11.3237 9.7803C11.3082 9.66557 11.2521 9.56021 11.1655 9.48334H11.1654Z" fill="#202439"/>
</svg>
