<svg width="22" height="22" fill="none" xmlns="http://www.w3.org/2000/svg"><path fill-rule="evenodd" clip-rule="evenodd" d="M20.06 20.861a.94.94 0 01-.915.65c-1.804-.036-6.814-.692-12.382-6.261C1.193 9.68.538 4.67.5 2.867a.939.939 0 01.65-.915L5.427.557a.975.975 0 011.191.542L8.324 5.05a.953.953 0 01-.196 1.056L6.125 8.11a.471.471 0 00-.11.499A11.669 11.669 0 008.9 13.113a11.669 11.669 0 004.503 2.884.471.471 0 00.5-.11l2.002-2.002a.954.954 0 011.057-.196l3.952 1.706a.974.974 0 01.542 1.19l-1.395 4.276z" fill="#fff"/></svg>