<svg width="15" height="15" viewBox="0 0 15 15" fill="none" xmlns="http://www.w3.org/2000/svg">
  <path fill-rule="evenodd" clip-rule="evenodd" d="M13.33 0.286526C13.712 -0.0955087 14.3314 -0.0955087 14.7135 0.286526C15.0955 0.668561 15.0955 1.28796 14.7135 1.67L8.88347 7.5L14.7135 13.33C15.0955 13.712 15.0955 14.3314 14.7135 14.7135C14.3314 15.0955 13.712 15.0955 13.33 14.7135L7.5 8.88347L1.67 14.7135C1.28796 15.0955 0.66856 15.0955 0.286526 14.7135C-0.0955087 14.3314 -0.0955087 13.712 0.286526 13.33L6.11653 7.5L0.28653 1.67C-0.0955046 1.28796 -0.0955046 0.668561 0.28653 0.286526C0.668565 -0.0955087 1.28797 -0.0955087 1.67 0.286526L7.5 6.11653L13.33 0.286526Z" fill="#202439"/>
</svg>
