<svg width="28" height="28" viewBox="0 0 28 28" fill="none" xmlns="http://www.w3.org/2000/svg">
<path d="M8.16634 25.6667H4.66634C4.0475 25.6667 3.45401 25.4208 3.01643 24.9833C2.57884 24.5457 2.33301 23.9522 2.33301 23.3333V15.1667C2.33301 14.5478 2.57884 13.9543 3.01643 13.5168C3.45401 13.0792 4.0475 12.8333 4.66634 12.8333H8.16634M16.333 10.5V5.83334C16.333 4.90508 15.9643 4.01484 15.3079 3.35846C14.6515 2.70208 13.7613 2.33334 12.833 2.33334L8.16634 12.8333V25.6667H21.3263C21.8891 25.673 22.4351 25.4758 22.8639 25.1113C23.2927 24.7469 23.5753 24.2397 23.6597 23.6833L25.2697 13.1833C25.3204 12.8489 25.2979 12.5075 25.2036 12.1826C25.1093 11.8578 24.9455 11.5573 24.7235 11.3021C24.5016 11.0469 24.2268 10.8429 23.9182 10.7044C23.6096 10.5659 23.2746 10.4962 22.9363 10.5H16.333Z" stroke="#37B84B" stroke-width="2" stroke-linecap="round" stroke-linejoin="round"/>
</svg>
